<?xml version="1.0" encoding="UTF-8" standalone="no"?>
<!-- Created with Inkscape (http://www.inkscape.org/) -->

<svg
   width="210mm"
   height="297mm"
   viewBox="0 0 210 297"
   version="1.1"
   id="svg944"
   inkscape:version="1.2.2 (732a01da63, 2022-12-09)"
   sodipodi:docname="botella 3.svg"
   xmlns:inkscape="http://www.inkscape.org/namespaces/inkscape"
   xmlns:sodipodi="http://sodipodi.sourceforge.net/DTD/sodipodi-0.dtd"
   xmlns="http://www.w3.org/2000/svg"
   xmlns:svg="http://www.w3.org/2000/svg">
  <sodipodi:namedview
     id="namedview946"
     pagecolor="#ffffff"
     bordercolor="#000000"
     borderopacity="0.25"
     inkscape:showpageshadow="2"
     inkscape:pageopacity="0.0"
     inkscape:pagecheckerboard="0"
     inkscape:deskcolor="#d1d1d1"
     inkscape:document-units="mm"
     showgrid="false"
     inkscape:zoom="0.74564394"
     inkscape:cx="396.97231"
     inkscape:cy="561.9304"
     inkscape:window-width="1920"
     inkscape:window-height="1017"
     inkscape:window-x="-8"
     inkscape:window-y="-8"
     inkscape:window-maximized="1"
     inkscape:current-layer="layer1" />
  <defs
     id="defs941">
    <clipPath
       clipPathUnits="userSpaceOnUse"
       id="clipPath117">
      <path
         d="M 0,841.89 H 595.28 V 0 H 0 Z"
         id="path115" />
    </clipPath>
  </defs>
  <g
     inkscape:label="Capa 1"
     inkscape:groupmode="layer"
     id="layer1">
    <g
       id="g111"
       transform="matrix(0.35277777,0,0,-0.35277777,1.4507669,301.0807)">
      <g
         id="g113"
         clip-path="url(#clipPath117)">
        <g
           id="g119"
           transform="translate(213.4707,100.6768)">
          <path
             d="m 0,0 v -12.135 c 0,-6.525 5.325,-11.818 11.892,-11.818 h 144.553 c 6.568,0 11.894,5.293 11.894,11.818 V 0 Z"
             style="fill:#1f120d;fill-opacity:1;fill-rule:nonzero;stroke:none"
             id="path121" />
        </g>
        <g
           id="g123"
           transform="translate(329.3076,587.7471)">
          <path
             d="M 0,0 V 57.682 H -63.336 V 0 c -27.156,-10.971 -47.346,-35.563 -51.982,-65.36 H 51.985 C 47.349,-35.563 27.157,-10.971 0,0"
             style="fill:#1f120d;fill-opacity:1;fill-rule:nonzero;stroke:none"
             id="path125" />
        </g>
        <g
           id="g127"
           transform="translate(329.3076,756.7803)">
          <path
             d="m 0,0 c 0,4.631 -3.757,8.386 -8.389,8.386 h -46.559 c -4.628,0 -8.385,-3.755 -8.385,-8.386 V -96.688 H 0 Z"
             style="fill:#1f120d;fill-opacity:1;fill-rule:nonzero;stroke:none"
             id="path129" />
        </g>
        <g
           id="g131"
           transform="translate(381.293,234.541)">
          <path
             d="m 0,0 -13.745,14.964 -23.248,-25.325 -23.242,25.325 -23.239,-25.325 -23.242,25.325 -23.249,-25.325 -23.251,25.325 -14.088,-15.353 V -35.84 H 0 Z"
             style="fill:#1f120d;fill-opacity:1;fill-rule:nonzero;stroke:none"
             id="path133" />
        </g>
        <g
           id="g135"
           transform="translate(251.3242,269.4561)">
          <path
             d="M 0,0 23.253,25.323 46.495,0 69.733,25.323 92.976,0 116.224,25.323 129.969,10.361 V 55.3 H -37.335 V 9.975 l 14.088,15.348 z"
             style="fill:#1f120d;fill-opacity:1;fill-rule:nonzero;stroke:none"
             id="path137" />
        </g>
        <g
           id="g139"
           transform="translate(381.293,362.6162)">
          <path
             d="m 0,0 -13.745,14.962 -23.248,-25.322 -23.242,25.322 -23.239,-25.322 -23.242,25.322 -23.249,-25.322 -23.251,25.322 -14.088,-15.35 V -26.687 H 0 Z"
             style="fill:#1f120d;fill-opacity:1;fill-rule:nonzero;stroke:none"
             id="path141" />
        </g>
        <g
           id="g143"
           transform="translate(381.293,436.7939)">
          <path
             d="m 0,0 v 20.204 24.208 24.454 5.311 H -167.304 V 68.866 44.024 19.816 0 -6.481 H 0 Z"
             style="fill:#1f120d;fill-opacity:1;fill-rule:nonzero;stroke:none"
             id="path145" />
        </g>
        <g
           id="g147"
           transform="translate(251.3242,376.4619)">
          <path
             d="M 0,0 23.253,25.321 46.495,0 69.733,25.321 92.976,0 116.224,25.321 129.969,10.362 V 42.678 H -37.335 V 9.975 l 14.088,15.346 z"
             style="fill:#1f120d;fill-opacity:1;fill-rule:nonzero;stroke:none"
             id="path149" />
        </g>
        <g
           id="g151"
           transform="translate(381.293,136.0078)">
          <path
             d="m 0,0 -13.487,14.639 -23.336,-25.33 -23.33,25.33 -23.321,-25.33 -23.331,25.33 -23.328,-25.33 -23.333,25.33 -13.838,-15.025 v -19.72 H 0 Z"
             style="fill:#1f120d;fill-opacity:1;fill-rule:nonzero;stroke:none"
             id="path153" />
        </g>
        <g
           id="g155"
           transform="translate(251.1602,149.5273)">
          <path
             d="M 0,0 23.328,25.329 46.659,0 69.979,25.329 93.31,0 116.646,25.329 130.133,10.693 V 37.999 H -37.171 V 10.303 l 13.838,15.026 z"
             style="fill:#1f120d;fill-opacity:1;fill-rule:nonzero;stroke:none"
             id="path157" />
        </g>
      </g>
    </g>
  </g>
</svg>
