<?xml version="1.0" encoding="UTF-8" standalone="no"?>
<!-- Created with Inkscape (http://www.inkscape.org/) -->

<svg
   width="210mm"
   height="297mm"
   viewBox="0 0 210 297"
   version="1.1"
   id="svg3508"
   inkscape:version="1.2.2 (732a01da63, 2022-12-09)"
   sodipodi:docname="copa canuto.svg"
   xmlns:inkscape="http://www.inkscape.org/namespaces/inkscape"
   xmlns:sodipodi="http://sodipodi.sourceforge.net/DTD/sodipodi-0.dtd"
   xmlns="http://www.w3.org/2000/svg"
   xmlns:svg="http://www.w3.org/2000/svg">
  <sodipodi:namedview
     id="namedview3510"
     pagecolor="#ffffff"
     bordercolor="#000000"
     borderopacity="0.25"
     inkscape:showpageshadow="2"
     inkscape:pageopacity="0.0"
     inkscape:pagecheckerboard="0"
     inkscape:deskcolor="#d1d1d1"
     inkscape:document-units="mm"
     showgrid="false"
     inkscape:zoom="0.74564394"
     inkscape:cx="396.97231"
     inkscape:cy="240.06096"
     inkscape:window-width="1920"
     inkscape:window-height="1017"
     inkscape:window-x="-8"
     inkscape:window-y="-8"
     inkscape:window-maximized="1"
     inkscape:current-layer="layer1" />
  <defs
     id="defs3505" />
  <g
     inkscape:label="Capa 1"
     inkscape:groupmode="layer"
     id="layer1">
    <g
       id="g825"
       transform="matrix(5.5946391,0,0,-5.5946391,149.26067,83.696252)">
      <path
         d="m 0,0 c -0.217,-0.141 -0.484,-0.242 -0.842,-0.242 -0.695,0 -1.055,0.384 -1.345,0.691 -0.262,0.28 -0.451,0.481 -0.856,0.481 -0.406,0 -0.596,-0.201 -0.857,-0.481 -0.289,-0.307 -0.65,-0.691 -1.345,-0.691 -0.695,0 -1.056,0.384 -1.345,0.691 -0.262,0.28 -0.451,0.481 -0.857,0.481 -0.406,0 -0.595,-0.201 -0.857,-0.481 -0.29,-0.307 -0.649,-0.691 -1.344,-0.691 -0.696,0 -1.056,0.384 -1.345,0.691 -0.263,0.28 -0.451,0.481 -0.857,0.481 -0.406,0 -0.594,-0.201 -0.857,-0.481 -0.289,-0.307 -0.649,-0.691 -1.344,-0.691 -0.512,0 -0.843,0.209 -1.096,0.441 -0.167,-0.788 -0.32,-1.518 -0.449,-2.144 H 0.405 C 0.289,-1.373 0.15,-0.712 0,0"
         style="fill:#000000;fill-opacity:1;fill-rule:nonzero;stroke:none"
         id="path827" />
    </g>
    <g
       id="g829"
       transform="matrix(5.5946391,0,0,-5.5946391,66.849388,114.61444)">
      <path
         d="m 0,0 c 0.263,-0.278 0.451,-0.48 0.856,-0.48 0.406,0 0.595,0.202 0.858,0.48 0.288,0.308 0.649,0.692 1.344,0.692 0.696,0 1.055,-0.384 1.345,-0.692 0.262,-0.278 0.451,-0.48 0.856,-0.48 0.406,0 0.596,0.202 0.857,0.48 0.289,0.308 0.65,0.692 1.346,0.692 0.694,0 1.055,-0.384 1.345,-0.692 0.261,-0.278 0.45,-0.48 0.856,-0.48 0.405,0 0.595,0.202 0.857,0.48 0.29,0.308 0.649,0.692 1.345,0.692 0.695,0 1.055,-0.384 1.344,-0.692 0.263,-0.278 0.452,-0.48 0.856,-0.48 0.407,0 0.596,0.202 0.858,0.48 0.157,0.167 0.335,0.354 0.575,0.493 0.02,0.32 0.032,0.653 0.037,0.996 0.01,0.03 -0.056,0.395 -0.175,0.992 H -1.088 C -1.208,1.884 -1.274,1.519 -1.265,1.489 -1.261,1.214 -1.251,0.948 -1.237,0.688 -0.611,0.651 -0.273,0.292 0,0"
         style="fill:#000000;fill-opacity:1;fill-rule:nonzero;stroke:none"
         id="path831" />
    </g>
    <g
       id="g833"
       transform="matrix(5.5946391,0,0,-5.5946391,70.652064,81.303308)">
      <path
         d="M 0,0 C 0.404,0 0.594,0.202 0.856,0.48 1.145,0.789 1.506,1.173 2.201,1.173 2.896,1.173 3.256,0.789 3.545,0.48 3.808,0.202 3.996,0 4.402,0 4.808,0 4.997,0.202 5.259,0.48 5.549,0.789 5.909,1.173 6.604,1.173 7.299,1.173 7.659,0.789 7.948,0.48 8.21,0.202 8.4,0 8.806,0 9.211,0 9.4,0.202 9.662,0.48 c 0.289,0.309 0.65,0.693 1.346,0.693 0.694,0 1.055,-0.384 1.345,-0.693 C 12.614,0.202 12.803,0 13.209,0 c 0.313,0 0.498,0.122 0.687,0.306 -0.872,4.117 -2.021,9.405 -2.021,9.405 H 6.456 1.037 c 0,0 -1.103,-5.076 -1.968,-9.152 C -0.905,0.532 -0.881,0.506 -0.856,0.48 -0.595,0.202 -0.406,0 0,0"
         style="fill:#000000;fill-opacity:1;fill-rule:nonzero;stroke:none"
         id="path835" />
    </g>
    <g
       id="g837"
       transform="matrix(5.5946391,0,0,-5.5946391,145.54024,121.05042)">
      <path
         d="M 0,0 C -0.694,0 -1.055,0.384 -1.344,0.692 -1.606,0.972 -1.796,1.173 -2.2,1.173 -2.607,1.173 -2.796,0.972 -3.058,0.692 -3.348,0.384 -3.708,0 -4.402,0 -5.098,0 -5.458,0.384 -5.748,0.692 -6.009,0.972 -6.199,1.173 -6.604,1.173 -7.01,1.173 -7.199,0.972 -7.461,0.692 -7.75,0.384 -8.11,0 -8.807,0 c -0.694,0 -1.054,0.384 -1.343,0.692 -0.262,0.28 -0.452,0.481 -0.858,0.481 -0.404,0 -0.594,-0.201 -0.855,-0.481 C -12.153,0.384 -12.513,0 -13.209,0 c -0.695,0 -1.056,0.384 -1.344,0.692 -0.226,0.242 -0.399,0.424 -0.703,0.469 0.363,-4.174 2,-6.353 3.91,-7.457 l 3.503,-3.106 v -17.18 c -0.073,-0.748 -0.53,-1.381 -1.172,-1.704 h -4.992 c -0.436,0 -0.792,-0.354 -0.792,-0.791 0,-0.122 0.029,-0.238 0.079,-0.342 H 0.86 c 0.05,0.104 0.078,0.22 0.078,0.342 0,0.437 -0.354,0.791 -0.791,0.791 h -4.993 c -0.64,0.323 -1.098,0.956 -1.171,1.704 v 17.18 l 3.503,3.106 c 1.837,1.063 3.423,3.12 3.864,6.992 C 1.349,0.694 1.348,0.694 1.346,0.692 1.057,0.384 0.696,0 0,0"
         style="fill:#000000;fill-opacity:1;fill-rule:nonzero;stroke:none"
         id="path839" />
    </g>
  </g>
</svg>
