<?xml version="1.0" encoding="UTF-8" standalone="no"?>
<!-- Created with Inkscape (http://www.inkscape.org/) -->

<svg
   width="210mm"
   height="297mm"
   viewBox="0 0 210 297"
   version="1.1"
   id="svg1681"
   inkscape:version="1.2.2 (732a01da63, 2022-12-09)"
   sodipodi:docname="copa23.svg"
   xmlns:inkscape="http://www.inkscape.org/namespaces/inkscape"
   xmlns:sodipodi="http://sodipodi.sourceforge.net/DTD/sodipodi-0.dtd"
   xmlns="http://www.w3.org/2000/svg"
   xmlns:svg="http://www.w3.org/2000/svg">
  <sodipodi:namedview
     id="namedview1683"
     pagecolor="#ffffff"
     bordercolor="#000000"
     borderopacity="0.25"
     inkscape:showpageshadow="2"
     inkscape:pageopacity="0.0"
     inkscape:pagecheckerboard="0"
     inkscape:deskcolor="#d1d1d1"
     inkscape:document-units="mm"
     showgrid="false"
     inkscape:zoom="0.74564394"
     inkscape:cx="396.97231"
     inkscape:cy="561.9304"
     inkscape:window-width="1920"
     inkscape:window-height="1017"
     inkscape:window-x="-8"
     inkscape:window-y="-8"
     inkscape:window-maximized="1"
     inkscape:current-layer="layer1" />
  <defs
     id="defs1678" />
  <g
     inkscape:label="Capa 1"
     inkscape:groupmode="layer"
     id="layer1">
    <g
       id="g289"
       transform="matrix(0.43297916,0,0,-0.43297916,142.47228,110.18666)">
      <path
         d="m 0,0 c -1.965,-1.274 -4.406,-2.199 -7.654,-2.199 -6.321,0 -9.596,3.486 -12.227,6.289 -2.383,2.534 -4.103,4.366 -7.789,4.366 -3.687,0 -5.408,-1.832 -7.789,-4.366 -2.631,-2.803 -5.906,-6.289 -12.227,-6.289 -6.32,0 -9.595,3.486 -12.226,6.289 -2.383,2.534 -4.104,4.366 -7.789,4.366 -3.688,0 -5.408,-1.832 -7.791,-4.366 -2.631,-2.803 -5.904,-6.289 -12.225,-6.289 -6.32,0 -9.596,3.486 -12.226,6.289 -2.381,2.534 -4.102,4.366 -7.787,4.366 -3.686,0 -5.407,-1.832 -7.788,-4.366 -2.63,-2.803 -5.904,-6.289 -12.226,-6.289 -4.654,0 -7.654,1.894 -9.965,4.01 -1.512,-7.163 -2.902,-13.806 -4.074,-19.497 H 3.691 C 2.619,-12.479 1.363,-6.471 0,0"
         style="fill:#1f120d;fill-opacity:1;fill-rule:nonzero;stroke:none"
         id="path291" />
    </g>
    <g
       id="g293"
       transform="matrix(0.43297916,0,0,-0.43297916,84.49027,131.93918)">
      <path
         d="m 0,0 c 2.381,-2.536 4.102,-4.368 7.787,-4.368 3.686,0 5.406,1.832 7.787,4.368 2.631,2.8 5.905,6.287 12.225,6.287 6.32,0 9.596,-3.487 12.226,-6.287 2.381,-2.536 4.102,-4.368 7.788,-4.368 3.685,0 5.408,1.832 7.789,4.368 2.63,2.8 5.906,6.287 12.226,6.287 6.32,0 9.596,-3.487 12.227,-6.287 2.381,-2.536 4.103,-4.368 7.789,-4.368 3.687,0 5.408,1.832 7.789,4.368 2.631,2.8 5.906,6.287 12.226,6.287 6.321,0 9.596,-3.487 12.227,-6.287 2.383,-2.536 4.103,-4.368 7.791,-4.368 3.685,0 5.408,1.832 7.789,4.368 1.426,1.515 3.043,3.228 5.227,4.485 0.177,2.916 0.294,5.928 0.339,9.052 0.086,0.26 -0.517,3.589 -1.595,9.021 H -9.9 c -1.079,-5.432 -1.682,-8.761 -1.596,-9.021 0.035,-2.499 0.125,-4.917 0.246,-7.283 C -5.562,5.915 -2.49,2.653 0,0"
         style="fill:#1f120d;fill-opacity:1;fill-rule:nonzero;stroke:none"
         id="path295" />
    </g>
    <g
       id="g301"
       transform="matrix(0.43297916,0,0,-0.43297916,139.85835,136.46685)">
      <path
         d="m 0,0 c -6.322,0 -9.596,3.487 -12.229,6.289 -2.38,2.534 -4.101,4.366 -7.789,4.366 -3.687,0 -5.408,-1.832 -7.789,-4.366 C -30.437,3.487 -33.711,0 -40.033,0 c -6.321,0 -9.594,3.487 -12.227,6.289 -2.381,2.534 -4.101,4.366 -7.789,4.366 -3.687,0 -5.408,-1.832 -7.789,-4.366 C -70.469,3.487 -73.744,0 -80.064,0 c -6.321,0 -9.594,3.487 -12.227,6.289 -2.381,2.534 -4.1,4.366 -7.787,4.366 -3.686,0 -5.406,-1.832 -7.787,-4.366 C -110.496,3.487 -113.77,0 -120.09,0 c -6.32,0 -9.594,3.487 -12.224,6.289 -2.057,2.191 -3.625,3.848 -6.391,4.261 3.303,-37.945 18.187,-57.755 35.551,-67.793 l 31.849,-28.237 v -156.184 c -0.666,-6.797 -4.824,-12.553 -10.652,-15.49 h -45.393 c -3.97,0 -7.189,-3.221 -7.189,-7.192 0,-1.113 0.262,-2.164 0.713,-3.105 H 7.809 c 0.455,0.941 0.714,1.992 0.714,3.105 0,3.971 -3.218,7.192 -7.189,7.192 h -45.393 c -5.828,2.937 -9.988,8.693 -10.654,15.49 V -85.48 l 31.854,28.239 C -6.152,-47.581 8.256,-28.872 12.262,6.326 12.25,6.313 12.238,6.303 12.227,6.289 9.596,3.487 6.32,0 0,0"
         style="fill:#1f120d;fill-opacity:1;fill-rule:nonzero;stroke:none"
         id="path303" />
    </g>
    <path
       d="m 87.161705,108.50294 c 1.596827,0 2.341551,-0.79322 3.372475,-1.89126 1.138302,-1.21277 2.556309,-2.72214 5.293171,-2.72214 2.736427,0 4.154434,1.50937 5.293599,2.72214 1.03093,1.09804 1.77608,1.89126 3.37161,1.89126 1.59596,0 2.34112,-0.79322 3.37161,-1.89126 1.14004,-1.21277 2.55848,-2.72214 5.2949,-2.72214 2.73643,0 4.15487,1.50937 5.29404,2.72214 1.03049,1.09804 1.77651,1.89126 3.37247,1.89126 1.59553,0 2.34069,-0.79322 3.37161,-1.89126 1.14004,-1.21277 2.55804,-2.72214 5.29447,-2.72214 2.73687,0 4.15486,1.50937 5.29403,2.72214 1.03094,1.09804 1.77565,1.89126 3.37248,1.89126 1.23529,0 1.96097,-0.47801 2.70439,-1.20109 -3.43092,-16.205544 -7.95599,-37.021017 -7.95599,-37.021017 H 112.57715 91.247296 c 0,0 -4.342781,19.976359 -7.744698,36.025597 0.09786,0.10305 0.194407,0.2048 0.288364,0.30525 1.030924,1.09804 1.775648,1.89126 3.370743,1.89126"
       style="fill:#1f120d;fill-opacity:1;fill-rule:nonzero;stroke:none;stroke-width:0.432979"
       id="path299" />
  </g>
</svg>
