<?xml version="1.0" encoding="UTF-8" standalone="no"?>
<!-- Created with Inkscape (http://www.inkscape.org/) -->

<svg
   width="210mm"
   height="297mm"
   viewBox="0 0 210 297"
   version="1.1"
   id="svg1604"
   inkscape:version="1.2.2 (732a01da63, 2022-12-09)"
   sodipodi:docname="copa1.svg"
   xmlns:inkscape="http://www.inkscape.org/namespaces/inkscape"
   xmlns:sodipodi="http://sodipodi.sourceforge.net/DTD/sodipodi-0.dtd"
   xmlns="http://www.w3.org/2000/svg"
   xmlns:svg="http://www.w3.org/2000/svg">
  <sodipodi:namedview
     id="namedview1606"
     pagecolor="#ffffff"
     bordercolor="#000000"
     borderopacity="0.25"
     inkscape:showpageshadow="2"
     inkscape:pageopacity="0.0"
     inkscape:pagecheckerboard="0"
     inkscape:deskcolor="#d1d1d1"
     inkscape:document-units="mm"
     showgrid="false"
     inkscape:zoom="0.74564394"
     inkscape:cx="396.97231"
     inkscape:cy="561.9304"
     inkscape:window-width="1920"
     inkscape:window-height="1017"
     inkscape:window-x="-8"
     inkscape:window-y="-8"
     inkscape:window-maximized="1"
     inkscape:current-layer="layer1" />
  <defs
     id="defs1601" />
  <g
     inkscape:label="Capa 1"
     inkscape:groupmode="layer"
     id="layer1">
    <g
       id="g273"
       transform="matrix(0.40849708,0,0,-0.40849708,82.91853,113.59369)">
      <path
         d="m 0,0 c 2.381,-2.534 4.102,-4.366 7.787,-4.366 3.686,0 5.406,1.832 7.787,4.366 2.631,2.802 5.905,6.289 12.225,6.289 6.32,0 9.596,-3.487 12.226,-6.289 2.381,-2.534 4.102,-4.366 7.788,-4.366 3.685,0 5.408,1.832 7.789,4.366 2.63,2.802 5.906,6.289 12.226,6.289 6.32,0 9.596,-3.487 12.227,-6.289 2.381,-2.534 4.103,-4.366 7.789,-4.366 3.687,0 5.408,1.832 7.789,4.366 2.631,2.802 5.906,6.289 12.226,6.289 6.321,0 9.596,-3.487 12.227,-6.289 2.383,-2.534 4.103,-4.366 7.791,-4.366 3.449,0 5.184,1.613 7.342,3.894 -1.313,6.355 -2.873,13.788 -4.553,21.731 H -5.037 C -6.193,15.79 -7.291,10.571 -8.293,5.772 -4.426,4.703 -2.02,2.151 0,0"
         style="fill:#1f120d;fill-opacity:1;fill-rule:nonzero;stroke:none"
         id="path275" />
    </g>
    <g
       id="g277"
       transform="matrix(0.40849708,0,0,-0.40849708,128.70128,69.571752)">
      <path
         d="m 0,0 h -49.262 -49.263 c 0,0 -8.873,-40.817 -16.467,-76.511 H 16.467 C 8.873,-40.817 0,0 0,0"
         style="fill:#1f120d;fill-opacity:1;fill-rule:nonzero;stroke:none"
         id="path279" />
    </g>
    <g
       id="g281"
       transform="matrix(0.40849708,0,0,-0.40849708,139.77221,122.443)">
      <path
         d="M 0,0 C 0.109,0.303 -0.877,5.14 -2.525,12.694 -4.67,11.14 -7.406,9.908 -11.301,9.908 c -6.32,0 -9.595,3.242 -12.228,5.85 -2.381,2.359 -4.102,4.064 -7.789,4.064 -3.688,0 -5.409,-1.705 -7.789,-4.064 -2.631,-2.608 -5.905,-5.85 -12.227,-5.85 -6.32,0 -9.594,3.242 -12.227,5.85 -2.38,2.359 -4.101,4.064 -7.789,4.064 -3.685,0 -5.408,-1.705 -7.789,-4.064 -2.631,-2.608 -5.906,-5.85 -12.226,-5.85 -6.321,0 -9.594,3.242 -12.227,5.85 -2.381,2.359 -4.099,4.064 -7.787,4.064 -3.685,0 -5.406,-1.705 -7.787,-4.064 -2.631,-2.608 -5.904,-5.85 -12.225,-5.85 -6.32,0 -9.593,3.244 -12.224,5.85 -1.713,1.696 -3.094,3.045 -5.102,3.673 -2.519,-11.338 -4.148,-19.046 -4.01,-19.431 0.04,-2.593 0.137,-5.104 0.284,-7.54 H -0.283 C -0.137,-5.104 -0.039,-2.593 0,0"
         style="fill:#1f120d;fill-opacity:1;fill-rule:nonzero;stroke:none"
         id="path283" />
    </g>
    <g
       id="g285"
       transform="matrix(0.40849708,0,0,-0.40849708,92.1783,155.39883)">
      <path
         d="M 0,0 31.85,-28.234 V -184.42 c -0.666,-6.795 -4.825,-12.553 -10.653,-15.488 h -45.392 c -3.971,0 -7.19,-3.219 -7.19,-7.192 0,-1.113 0.262,-2.166 0.713,-3.105 h 141.635 c 0.455,0.939 0.715,1.992 0.715,3.105 0,3.973 -3.219,7.192 -7.19,7.192 H 59.096 c -5.828,2.935 -9.989,8.693 -10.655,15.488 V -28.234 L 80.297,0.002 C 96.934,9.623 111.289,28.22 115.365,63.14 H -35.074 C -30.996,28.218 -16.639,9.62 0,0"
         style="fill:#1f120d;fill-opacity:1;fill-rule:nonzero;stroke:none"
         id="path287" />
    </g>
  </g>
</svg>
