<?xml version="1.0" encoding="UTF-8" standalone="no"?>
<!-- Created with Inkscape (http://www.inkscape.org/) -->

<svg
   width="210mm"
   height="297mm"
   viewBox="0 0 210 297"
   version="1.1"
   id="svg2660"
   inkscape:version="1.2.2 (732a01da63, 2022-12-09)"
   sodipodi:docname="corch canuto.svg"
   xmlns:inkscape="http://www.inkscape.org/namespaces/inkscape"
   xmlns:sodipodi="http://sodipodi.sourceforge.net/DTD/sodipodi-0.dtd"
   xmlns="http://www.w3.org/2000/svg"
   xmlns:svg="http://www.w3.org/2000/svg">
  <sodipodi:namedview
     id="namedview2662"
     pagecolor="#ffffff"
     bordercolor="#000000"
     borderopacity="0.25"
     inkscape:showpageshadow="2"
     inkscape:pageopacity="0.0"
     inkscape:pagecheckerboard="0"
     inkscape:deskcolor="#d1d1d1"
     inkscape:document-units="mm"
     showgrid="false"
     inkscape:zoom="0.74564394"
     inkscape:cx="396.97231"
     inkscape:cy="561.9304"
     inkscape:window-width="1920"
     inkscape:window-height="1017"
     inkscape:window-x="-8"
     inkscape:window-y="-8"
     inkscape:window-maximized="1"
     inkscape:current-layer="layer1" />
  <defs
     id="defs2657" />
  <g
     inkscape:label="Capa 1"
     inkscape:groupmode="layer"
     id="layer1">
    <g
       id="g857"
       transform="matrix(23.288757,0,0,-18.980155,63.346035,91.59212)">
      <path
         d="M 0,0 0.964,0.634 1.928,0 2.892,0.634 3.854,0 4.818,0.634 4.921,0.566 5.029,1.25 c 0,0 -0.6,1.603 -3.054,1.705 C 1.976,2.957 1.977,2.961 1.977,2.961 1.96,2.959 1.944,2.957 1.927,2.957 1.91,2.957 1.895,2.959 1.876,2.959 1.877,2.961 1.879,2.957 1.88,2.955 -0.574,2.853 -1.175,1.25 -1.175,1.25 l 0.108,-0.684 0.104,0.068 z"
         style="fill:#000000;fill-opacity:1;fill-rule:nonzero;stroke:none"
         id="path859" />
    </g>
    <g
       id="g861"
       transform="matrix(23.288757,0,0,-18.980155,153.11258,101.15596)">
      <path
         d="M 0,0 -0.963,0.635 -1.927,0 -2.891,0.635 -3.854,0 -4.817,0.635 -4.85,0.611 l 0.196,-1.231 0.8,-0.526 0.963,0.632 0.964,-0.632 0.964,0.632 L 0,-1.146 0.8,-0.621 0.995,0.613 0.964,0.635 Z"
         style="fill:#000000;fill-opacity:1;fill-rule:nonzero;stroke:none"
         id="path863" />
    </g>
    <g
       id="g865"
       transform="matrix(23.288757,0,0,-18.980155,130.68778,120.45152)">
      <path
         d="M 0,0 -0.964,-0.634 -1.928,0 l -0.964,-0.634 -0.712,0.469 0.319,-2.013 c 0.645,0.361 1.428,0.571 2.269,0.571 0.882,0 1.7,-0.232 2.364,-0.624 l 0.326,2.064 -0.711,-0.467 z"
         style="fill:#000000;fill-opacity:1;fill-rule:nonzero;stroke:none"
         id="path867" />
    </g>
    <g
       id="g869"
       transform="matrix(23.288757,0,0,-18.980155,163.25714,170.18126)">
      <path
         d="m 0,0 c -0.663,0.407 -1.48,0.647 -2.363,0.647 -0.842,0 -1.624,-0.217 -2.269,-0.59 -0.639,-0.369 -1.144,-0.891 -1.444,-1.503 h 0.004 C -6.074,-1.448 -6.074,-1.45 -6.076,-1.452 v -2.152 c 0.58,-1.103 2.021,-1.886 3.713,-1.886 1.688,0 3.134,0.783 3.713,1.886 v 2.151 C 1.348,-1.451 1.347,-1.448 1.345,-1.446 H 1.35 C 1.064,-0.865 0.595,-0.364 0,0"
         style="fill:#000000;fill-opacity:1;fill-rule:nonzero;stroke:none"
         id="path871" />
    </g>
  </g>
</svg>
