<?xml version="1.0" encoding="UTF-8" standalone="no"?>
<!-- Created with Inkscape (http://www.inkscape.org/) -->

<svg
   width="210mm"
   height="297mm"
   viewBox="0 0 210 297"
   version="1.1"
   id="svg1114"
   inkscape:version="1.2.2 (732a01da63, 2022-12-09)"
   sodipodi:docname="damajuana.svg"
   xmlns:inkscape="http://www.inkscape.org/namespaces/inkscape"
   xmlns:sodipodi="http://sodipodi.sourceforge.net/DTD/sodipodi-0.dtd"
   xmlns="http://www.w3.org/2000/svg"
   xmlns:svg="http://www.w3.org/2000/svg">
  <sodipodi:namedview
     id="namedview1116"
     pagecolor="#ffffff"
     bordercolor="#000000"
     borderopacity="0.25"
     inkscape:showpageshadow="2"
     inkscape:pageopacity="0.0"
     inkscape:pagecheckerboard="0"
     inkscape:deskcolor="#d1d1d1"
     inkscape:document-units="mm"
     showgrid="false"
     inkscape:zoom="0.74564394"
     inkscape:cx="396.97231"
     inkscape:cy="561.9304"
     inkscape:window-width="1920"
     inkscape:window-height="1017"
     inkscape:window-x="-8"
     inkscape:window-y="-8"
     inkscape:window-maximized="1"
     inkscape:current-layer="layer1" />
  <defs
     id="defs1111">
    <clipPath
       clipPathUnits="userSpaceOnUse"
       id="clipPath169">
      <path
         d="M 0,841.89 H 595.28 V 0 H 0 Z"
         id="path167" />
    </clipPath>
  </defs>
  <g
     inkscape:label="Capa 1"
     inkscape:groupmode="layer"
     id="layer1">
    <g
       id="g163"
       transform="matrix(0.35277777,0,0,-0.35277777,5.3540276,300.37096)">
      <g
         id="g165"
         clip-path="url(#clipPath169)">
        <g
           id="g171"
           transform="translate(171.7007,320.1631)">
          <path
             d="m 0,0 c 6.227,-5.789 11.604,-10.787 22.734,-10.787 11.132,0 16.51,5 22.737,10.787 6.654,6.184 14.195,13.193 28.863,13.193 14.668,0 22.209,-7.009 28.863,-13.193 6.227,-5.789 11.604,-10.787 22.735,-10.787 11.13,0 16.508,4.998 22.736,10.787 6.652,6.184 14.193,13.193 28.861,13.193 14.67,0 22.211,-7.009 28.866,-13.193 6.226,-5.789 11.604,-10.787 22.736,-10.787 11.131,0 16.509,5 22.736,10.787 6.653,6.184 14.195,13.193 28.862,13.193 10.332,0 17.123,-3.48 22.563,-7.697 l 8.755,100.662 H -60.166 L -51.413,5.504 c 5.438,4.213 12.225,7.689 22.55,7.689 C -14.195,13.193 -6.654,6.184 0,0"
             style="fill:#1f120d;fill-opacity:1;fill-rule:nonzero;stroke:none"
             id="path173" />
        </g>
        <g
           id="g175"
           transform="translate(484.5386,435.4287)">
          <path
             d="m 0,0 h 18.801 l 4.529,35.889 h -20.209 -186.937 -1.7 -2.765 -1.699 -186.94 -20.207 L -392.598,0 h 18.801 l 0.007,-0.072 H -0.006 Z"
             style="fill:#1f120d;fill-opacity:1;fill-rule:nonzero;stroke:none"
             id="path177" />
        </g>
        <g
           id="g179"
           transform="translate(139.3101,102.9229)">
          <path
             d="m 0,0 c 0,-2.094 0.17,-4.162 0.47,-6.203 h 315.721 c 0.299,2.041 0.469,4.109 0.469,6.203 l 7.026,80.777 H -7.024 Z"
             style="fill:#1f120d;fill-opacity:1;fill-rule:nonzero;stroke:none"
             id="path181" />
        </g>
        <g
           id="g183"
           transform="translate(202.8159,47.0596)">
          <path
             d="m 0,0 h 91.742 0.588 4.986 0.59 91.742 c 25.579,0 52.257,17.475 60.736,40.66 H -60.734 C -52.256,17.475 -25.577,0 0,0"
             style="fill:#1f120d;fill-opacity:1;fill-rule:nonzero;stroke:none"
             id="path185" />
        </g>
        <g
           id="g187"
           transform="translate(177.5679,236.9092)">
          <path
             d="m 0,0 c 5.948,-5.527 9.876,-9.18 18.65,-9.18 8.776,0 12.705,3.653 18.653,9.182 7.093,6.592 15.923,14.799 32.948,14.799 17.026,0 25.853,-8.207 32.946,-14.801 5.949,-5.527 9.878,-9.18 18.651,-9.18 8.773,0 12.703,3.653 18.65,9.18 7.094,6.594 15.922,14.801 32.947,14.801 17.028,0 25.856,-8.207 32.95,-14.801 5.949,-5.527 9.878,-9.18 18.652,-9.18 8.773,0 12.703,3.653 18.65,9.18 7.094,6.594 15.922,14.801 32.948,14.801 5.663,0 10.404,-0.92 14.491,-2.375 l 5.329,61.289 c -5.772,5.326 -11.152,9.732 -21.604,9.732 -11.131,0 -16.507,-4.998 -22.735,-10.785 -6.653,-6.185 -14.194,-13.195 -28.862,-13.195 -14.668,0 -22.21,7.01 -28.864,13.195 -6.227,5.787 -11.605,10.785 -22.738,10.785 -11.131,0 -16.508,-4.998 -22.734,-10.785 -6.655,-6.185 -14.196,-13.195 -28.864,-13.195 -14.668,0 -22.209,7.01 -28.861,13.195 C 84.976,78.449 79.598,83.447 68.467,83.447 57.336,83.447 51.958,78.449 45.73,72.662 39.078,66.477 31.536,59.467 16.867,59.467 c -14.668,0 -22.209,7.01 -28.861,13.195 -6.228,5.787 -11.606,10.785 -22.736,10.785 -10.444,0 -15.823,-4.4 -21.59,-9.724 l 2.786,-32.041 H 291.795 V 32.645 H -52.749 l 1.881,-21.622 c 4.804,2.254 10.601,3.778 17.923,3.778 C -15.92,14.801 -7.093,6.594 0,0"
             style="fill:#1f120d;fill-opacity:1;fill-rule:nonzero;stroke:none"
             id="path189" />
        </g>
        <g
           id="g191"
           transform="translate(454.2124,230.71)">
          <path
             d="m 0,0 c -8.772,0 -12.701,-3.652 -18.65,-9.182 -7.094,-6.593 -15.922,-14.798 -32.948,-14.798 -17.026,0 -25.855,8.205 -32.949,14.798 -5.947,5.53 -9.877,9.182 -18.652,9.182 -8.773,0 -12.701,-3.652 -18.651,-9.182 -7.092,-6.593 -15.921,-14.798 -32.947,-14.798 -17.025,0 -25.853,8.205 -32.947,14.798 -5.947,5.53 -9.877,9.182 -18.649,9.182 -8.773,0 -12.703,-3.652 -18.652,-9.182 -7.094,-6.593 -15.922,-14.798 -32.949,-14.798 -17.026,0 -25.854,8.205 -32.947,14.798 -5.948,5.53 -9.877,9.182 -18.649,9.182 -7.33,0 -11.281,-2.555 -15.849,-6.617 l 2.726,-31.356 H 9.568 l 2.963,34.067 C 9.133,-1.451 5.528,0 0,0"
             style="fill:#1f120d;fill-opacity:1;fill-rule:nonzero;stroke:none"
             id="path193" />
        </g>
        <g
           id="g195"
           transform="translate(333.3628,785.2051)">
          <path
             d="M 0,0 C 0,5.318 -4.307,9.625 -9.625,9.625 H -61.82 c -5.317,0 -9.623,-4.307 -9.623,-9.625 V -90.396 H 0 Z"
             style="fill:#1f120d;fill-opacity:1;fill-rule:nonzero;stroke:none"
             id="path197" />
        </g>
        <g
           id="g199"
           transform="translate(258.8823,652.2744)">
          <path
             d="m 0,0 c -6.977,-42.563 -33.535,-118.465 -132.68,-155.943 -0.205,3.207 -0.343,6.42 -0.343,9.664 C -133.023,-69.949 -74.52,-7.045 0,0 m -160.828,-173.713 h 9.639 10.439 10.316 33.786 325.351 v 10.586 0.887 C 67.332,-113.488 75.133,35.698 75.133,35.698 H 41.682 35.834 2.381 c 0,0 0.035,-5.656 0.051,-6.859 -91.446,-5.951 -164.034,-82.198 -164.034,-175.118 0,-5.377 0.299,-10.705 0.774,-15.992 z"
             style="fill:#1f120d;fill-opacity:1;fill-rule:nonzero;stroke:none"
             id="path201" />
        </g>
      </g>
    </g>
  </g>
</svg>
