<?xml version="1.0" encoding="UTF-8" standalone="no"?>
<!-- Created with Inkscape (http://www.inkscape.org/) -->

<svg
   width="210mm"
   height="297mm"
   viewBox="0 0 210 297"
   version="1.1"
   id="svg4767"
   xmlns="http://www.w3.org/2000/svg"
   xmlns:svg="http://www.w3.org/2000/svg">
  <defs
     id="defs4764">
    <clipPath
       clipPathUnits="userSpaceOnUse"
       id="clipPath2095">
      <path
         d="M 0,841.89 H 595.28 V 0 H 0 Z"
         id="path2093" />
    </clipPath>
  </defs>
  <g
     id="layer1">
    <g
       id="g2089"
       transform="matrix(0.35277777,0,0,-0.35277777,185.12935,303.56444)" />
    <path
       d="M 0.43570677,297.88714 H 210.33849 V 0.88705909 H 0.43570677 Z"
       style="fill:#6b3454;fill-opacity:1;fill-rule:nonzero;stroke:none;stroke-width:0.352778"
       id="path2087" />
  </g>
  <g
     id="g2091"
     clip-path="url(#clipPath2095)"
     transform="matrix(0.35277777,0,0,-0.35277777,2.3874145,297.88704)">
    <g
       id="g2097"
       transform="translate(21.6543,319.3057)">
      <path
         d="m 0,0 h -10.264 c -5.519,0 -9.996,-4.434 -9.996,-9.898 v -120.313 c 0,-5.467 4.477,-9.898 9.996,-9.898 H 0 Z m -1,-1 v -138.109 h -9.264 c -4.961,0 -8.996,3.992 -8.996,8.898 V -9.898 c 0,4.906 4.035,8.898 8.996,8.898 H -1"
         style="fill:#ffa07b;fill-opacity:1;fill-rule:nonzero;stroke:none"
         id="path2099" />
    </g>
    <g
       id="g2101"
       transform="translate(378.355,318.8721)">
      <path
         d="m 0,0 v -139.246 c 25.203,3.859 46.004,20.664 55.284,43.266 h 48.79 v 52.716 H 55.284 C 46.004,-20.66 25.203,-3.859 0,0 m 1,-1.175 c 23.857,-4.06 44.234,-20.244 53.359,-42.469 l 0.255,-0.62 h 0.67 47.79 V -94.98 h -47.79 -0.67 l -0.255,-0.621 C 45.233,-117.826 24.856,-134.011 1,-138.071 V -1.175"
         style="fill:#ffa07b;fill-opacity:1;fill-rule:nonzero;stroke:none"
         id="path2103" />
    </g>
    <g
       id="g2105"
       transform="translate(576.6143,275.6064)">
      <path
         d="M 0,0 H -81.783 V -52.715 H 0 c 3.917,0 7.093,3.129 7.093,6.985 V -6.979 C 7.093,-3.127 3.917,0 0,0 m 0,-1 c 3.359,0 6.093,-2.682 6.093,-5.979 V -45.73 c 0,-3.3 -2.734,-5.985 -6.093,-5.985 H -80.783 V -1 H 0"
         style="fill:#ffa07b;fill-opacity:1;fill-rule:nonzero;stroke:none"
         id="path2107" />
    </g>
    <g
       id="g2109"
       transform="translate(134.5537,318.8721)">
      <path
         d="M 0,0 H -29.986 V -139.246 H 0.33 l 12.655,11.439 -21.42,19.35 21.42,19.344 -21.42,19.342 21.42,19.345 -21.42,19.35 21.42,19.351 z m -0.385,-1 11.878,-10.725 -20.598,-18.609 -0.822,-0.742 0.822,-0.742 20.598,-18.608 -20.598,-18.603 -0.822,-0.742 0.822,-0.743 20.598,-18.599 -20.598,-18.602 -0.822,-0.742 0.822,-0.742 20.598,-18.608 -11.548,-10.439 H -28.986 V -1 Z"
         style="fill:#ffa07b;fill-opacity:1;fill-rule:nonzero;stroke:none"
         id="path2111" />
    </g>
    <g
       id="g2113"
       transform="translate(211.1895,318.8721)">
      <path
         d="m 0,0 h -38.337 l 12.983,-11.725 -21.419,-19.349 21.419,-19.352 -21.419,-19.345 21.419,-19.342 -21.419,-19.344 21.419,-19.35 -12.656,-11.439 H 0 Z m -1,-1 v -137.246 h -34.413 l 10.729,9.697 0.821,0.742 -0.821,0.743 -20.598,18.607 20.598,18.602 0.822,0.742 -0.822,0.742 -20.597,18.6 20.597,18.603 0.821,0.742 -0.821,0.742 -20.598,18.61 20.598,18.607 0.821,0.742 -0.821,0.743 L -35.738,-1 Z"
         style="fill:#ffa07b;fill-opacity:1;fill-rule:nonzero;stroke:none"
         id="path2115" />
    </g>
    <g
       id="g2117"
       transform="translate(242.8857,318.8721)">
      <path
         d="M 0,0 H -22.244 V -139.246 H 0.328 l 12.656,11.439 -21.419,19.35 21.419,19.344 -21.419,19.342 21.419,19.345 -21.419,19.35 21.419,19.351 z m -0.385,-1 11.877,-10.725 -20.597,-18.609 -0.822,-0.742 0.822,-0.742 20.597,-18.608 -20.597,-18.603 -0.822,-0.742 0.822,-0.743 20.597,-18.599 -20.597,-18.602 -0.822,-0.742 0.822,-0.742 20.597,-18.608 -11.549,-10.439 H -21.244 V -1 Z"
         style="fill:#ffa07b;fill-opacity:1;fill-rule:nonzero;stroke:none"
         id="path2119" />
    </g>
    <g
       id="g2121"
       transform="translate(368.6992,318.8721)">
      <path
         d="m 0,0 h -4.493 -21.012 -20.476 -16.763 -5.481 v -139.246 h 5.481 17.091 20.476 H -4.493 0 Z m -1,-1 v -137.246 h -3.493 -20.684 -20.476 -17.091 -4.481 V -1 h 4.481 16.763 20.476 21.012 z"
         style="fill:#ffa07b;fill-opacity:1;fill-rule:nonzero;stroke:none"
         id="path2123" />
    </g>
    <g
       id="g2125"
       transform="translate(291.0239,318.8721)">
      <path
         d="m 0,0 h -27.662 l 12.981,-11.725 -21.418,-19.349 21.418,-19.352 -21.418,-19.345 21.418,-19.342 -21.418,-19.344 21.418,-19.35 -12.653,-11.439 H 0 Z m -1,-1 v -137.246 h -23.737 l 10.726,9.697 0.821,0.742 -0.821,0.743 -20.596,18.607 20.596,18.602 0.822,0.742 -0.822,0.742 -20.596,18.6 20.596,18.603 0.822,0.742 -0.822,0.742 -20.596,18.61 20.596,18.607 0.822,0.742 -0.822,0.743 L -25.062,-1 Z"
         style="fill:#ffa07b;fill-opacity:1;fill-rule:nonzero;stroke:none"
         id="path2127" />
    </g>
    <g
       id="g2129"
       transform="translate(51.2134,318.8721)">
      <path
         d="M 0,0 H -16.682 V -139.246 H 0.326 l 12.382,11.225 -21.425,19.421 21.425,19.418 -21.425,19.411 21.425,19.417 -21.425,19.418 21.425,19.42 z m -0.386,-1 11.604,-10.516 -20.606,-18.678 -0.818,-0.742 0.818,-0.741 20.606,-18.677 -20.606,-18.676 -0.818,-0.741 0.818,-0.742 20.606,-18.669 -20.606,-18.676 -0.818,-0.742 0.817,-0.741 20.608,-18.68 -11.279,-10.225 H -15.682 V -1 Z"
         style="fill:#ffa07b;fill-opacity:1;fill-rule:nonzero;stroke:none"
         id="path2131" />
    </g>
    <g
       id="g2133"
       transform="translate(95.1152,318.8721)">
      <path
         d="m 0,0 h -23.426 l 12.709,-11.516 -21.425,-19.42 21.425,-19.418 -21.425,-19.417 21.425,-19.411 -21.425,-19.418 21.425,-19.421 -12.38,-11.225 H 0 Z m -1,-1 v -137.246 h -19.505 l 10.46,9.483 0.817,0.742 -0.817,0.741 -20.608,18.68 20.608,18.677 0.817,0.741 -0.817,0.742 -20.607,18.669 20.607,18.676 0.817,0.741 -0.817,0.742 -20.607,18.676 20.607,18.679 0.817,0.741 -0.817,0.742 L -20.833,-1 Z"
         style="fill:#ffa07b;fill-opacity:1;fill-rule:nonzero;stroke:none"
         id="path2135" />
    </g>
    <g
       id="g2137"
       transform="translate(574.0156,838.9492)">
      <path
         d="M 0,0 H -10.23 V -139.648 H 0 c 5.5,0 9.963,4.418 9.963,9.866 V -9.864 C 9.963,-4.419 5.5,0 0,0 m 0,-1 c 4.942,0 8.963,-3.977 8.963,-8.864 v -119.918 c 0,-4.889 -4.021,-8.866 -8.963,-8.866 H -9.23 V -1 H 0"
         style="fill:#ffa07b;fill-opacity:1;fill-rule:nonzero;stroke:none"
         id="path2139" />
    </g>
    <g
       id="g2141"
       transform="translate(208.2563,838.5176)">
      <path
         d="m 0,0 c -25.121,-3.845 -45.853,-20.593 -55.104,-43.122 h -48.628 v -52.542 h 48.628 c 9.251,-22.528 29.983,-39.278 55.104,-43.124 z m -1,-1.174 v -136.439 c -23.774,4.047 -44.082,20.177 -53.178,42.329 l -0.255,0.62 h -0.671 -47.628 v 50.542 h 47.628 0.671 l 0.255,0.62 C -45.083,-21.35 -24.774,-5.221 -1,-1.174"
         style="fill:#ffa07b;fill-opacity:1;fill-rule:nonzero;stroke:none"
         id="path2143" />
    </g>
    <g
       id="g2145"
       transform="translate(92.1621,795.3945)">
      <path
         d="m 0,0 h -81.514 c -3.904,0 -7.069,-3.117 -7.069,-6.956 v -38.625 c 0,-3.844 3.165,-6.96 7.069,-6.96 H 0 Z m -1,-1 v -50.541 h -80.514 c -3.346,0 -6.069,2.674 -6.069,5.96 v 38.625 c 0,3.284 2.723,5.956 6.069,5.956 L -1,-1"
         style="fill:#ffa07b;fill-opacity:1;fill-rule:nonzero;stroke:none"
         id="path2147" />
    </g>
    <g
       id="g2149"
       transform="translate(481.1445,838.5176)">
      <path
         d="m 0,0 h -29.888 l -12.943,-11.685 21.35,-19.29 -21.35,-19.287 21.35,-19.28 -21.35,-19.277 21.35,-19.281 -21.35,-19.286 12.615,-11.402 H 0 Z m -1,-1 v -136.788 h -28.831 l -11.508,10.402 20.528,18.544 0.822,0.742 -0.822,0.743 -20.528,18.538 20.528,18.535 0.822,0.742 -0.822,0.742 -20.528,18.538 20.528,18.545 0.822,0.742 -0.822,0.743 -20.528,18.547 L -29.503,-1 Z"
         style="fill:#ffa07b;fill-opacity:1;fill-rule:nonzero;stroke:none"
         id="path2151" />
    </g>
    <g
       id="g2153"
       transform="translate(413.083,838.5176)">
      <path
         d="m 0,0 h -38.21 v -138.788 h 37.885 l -12.614,11.402 21.349,19.286 -21.349,19.281 21.349,19.277 -21.349,19.28 21.349,19.292 -21.349,19.285 z m -2.6,-1 -11.009,-9.942 -0.822,-0.743 0.822,-0.742 20.527,-18.543 -20.527,-18.55 -0.822,-0.742 0.822,-0.742 20.526,-18.538 -20.526,-18.535 -0.822,-0.742 0.822,-0.743 20.527,-18.538 -20.527,-18.544 -0.822,-0.742 0.822,-0.741 10.686,-9.661 H -37.21 V -1 Z"
         style="fill:#ffa07b;fill-opacity:1;fill-rule:nonzero;stroke:none"
         id="path2155" />
    </g>
    <g
       id="g2157"
       transform="translate(365.4521,838.5176)">
      <path
         d="m 0,0 h -22.172 l -12.941,-11.685 21.349,-19.29 -21.349,-19.287 21.349,-19.28 -21.349,-19.277 21.349,-19.281 -21.349,-19.286 12.614,-11.402 H 0 Z m -1,-1 v -136.788 h -21.114 l -11.507,10.402 20.527,18.544 0.822,0.742 -0.822,0.743 -20.527,18.538 20.527,18.535 0.822,0.742 -0.822,0.742 -20.527,18.538 20.527,18.545 0.822,0.742 -0.822,0.743 -20.527,18.547 L -21.787,-1 Z"
         style="fill:#ffa07b;fill-opacity:1;fill-rule:nonzero;stroke:none"
         id="path2159" />
    </g>
    <g
       id="g2161"
       transform="translate(285.8804,838.5176)">
      <path
         d="M 0,0 H -5.462 -22.171 -42.579 -63.522 -68 v -138.788 h 4.478 20.616 20.409 H -5.462 0 Z M -1,-1 V -137.788 H -5.462 -22.497 -42.906 -63.522 -67 V -1 h 3.478 20.943 20.408 16.709 z"
         style="fill:#ffa07b;fill-opacity:1;fill-rule:nonzero;stroke:none"
         id="path2163" />
    </g>
    <g
       id="g2165"
       transform="translate(322.8711,838.5176)">
      <path
         d="m 0,0 h -27.571 v -138.788 h 27.245 l -12.612,11.402 21.347,19.286 -21.347,19.281 21.347,19.277 -21.347,19.28 21.347,19.292 -21.347,19.285 z m -2.599,-1 -11.01,-9.942 -0.821,-0.743 0.821,-0.742 20.526,-18.543 -20.526,-18.55 -0.821,-0.742 0.821,-0.742 20.526,-18.538 -20.526,-18.535 -0.822,-0.742 0.822,-0.743 20.526,-18.538 -20.526,-18.544 -0.821,-0.741 0.821,-0.742 10.686,-9.661 H -26.571 V -1 Z"
         style="fill:#ffa07b;fill-opacity:1;fill-rule:nonzero;stroke:none"
         id="path2167" />
    </g>
    <g
       id="g2169"
       transform="translate(550.9492,838.5176)">
      <path
         d="m 0,0 h -16.626 l -12.666,-11.478 21.354,-19.357 -21.354,-19.353 21.354,-19.354 -21.354,-19.345 21.354,-19.355 -21.354,-19.358 12.341,-11.188 H 0 Z m -1,-1 v -136.788 h -15.565 l -11.238,10.188 20.536,18.617 0.818,0.741 -0.818,0.741 -20.536,18.614 20.536,18.604 0.818,0.741 -0.818,0.741 -20.536,18.613 20.536,18.612 0.818,0.741 -0.818,0.741 -20.536,18.616 L -16.24,-1 Z"
         style="fill:#ffa07b;fill-opacity:1;fill-rule:nonzero;stroke:none"
         id="path2171" />
    </g>
    <g
       id="g2173"
       transform="translate(513.9141,838.5176)">
      <path
         d="m 0,0 h -23.349 v -138.788 h 23.021 l -12.339,11.188 21.354,19.358 -21.354,19.355 21.354,19.345 -21.354,19.354 21.354,19.353 -21.354,19.357 z m -2.593,-1 -10.745,-9.736 -0.818,-0.742 0.817,-0.74 20.537,-18.617 -20.536,-18.613 -0.818,-0.74 0.818,-0.742 20.536,-18.612 -20.536,-18.604 -0.818,-0.741 0.818,-0.74 20.536,-18.615 -20.537,-18.617 -0.817,-0.741 0.817,-0.74 10.42,-9.448 h -19.43 V -1 Z"
         style="fill:#ffa07b;fill-opacity:1;fill-rule:nonzero;stroke:none"
         id="path2175" />
    </g>
    <g
       id="g2177"
       transform="translate(570.5918,141.1689)">
      <path
         d="M 0,0 H -10.107 V -137.111 H 0 c 5.439,0 9.847,4.338 9.847,9.683 V -9.689 C 9.847,-4.336 5.439,0 0,0 m 0,-1 c 4.878,0 8.847,-3.898 8.847,-8.689 v -117.739 c 0,-4.788 -3.969,-8.683 -8.847,-8.683 H -9.107 V -1 H 0"
         style="fill:#ffa07b;fill-opacity:1;fill-rule:nonzero;stroke:none"
         id="path2179" />
    </g>
    <g
       id="g2181"
       transform="translate(206.5796,141.1221)">
      <path
         d="m 0,0 c -25.011,-3.83 -45.651,-20.506 -54.862,-42.938 h -48.414 v -52.308 h 48.414 c 9.211,-22.436 29.851,-39.108 54.862,-42.936 z m -1,-1.175 v -135.832 c -23.668,4.03 -43.883,20.088 -52.937,42.141 l -0.255,0.62 h -0.67 -47.414 v 50.308 h 47.414 0.67 l 0.254,0.621 c 9.056,22.052 29.271,38.11 52.938,42.142"
         style="fill:#ffa07b;fill-opacity:1;fill-rule:nonzero;stroke:none"
         id="path2183" />
    </g>
    <g
       id="g2185"
       transform="translate(90.9941,98.1865)">
      <path
         d="m 0,0 h -81.156 c -3.888,0 -7.039,-3.104 -7.039,-6.928 v -38.453 c 0,-3.828 3.151,-6.93 7.039,-6.93 H 0 Z m -1,-1 v -50.311 h -80.156 c -3.33,0 -6.039,2.661 -6.039,5.93 v 38.453 c 0,3.269 2.709,5.928 6.039,5.928 L -1,-1"
         style="fill:#ffa07b;fill-opacity:1;fill-rule:nonzero;stroke:none"
         id="path2187" />
    </g>
    <g
       id="g2189"
       transform="translate(339.3179,138.9033)">
      <path
         d="m 0,0 h -26.952 c -0.774,-3.955 -2.213,-6.672 -3.628,-9.289 -1.928,-3.545 -3.747,-6.887 -3.747,-13.719 0,-6.826 1.819,-10.174 3.747,-13.713 2.06,-3.802 4.199,-7.74 4.199,-15.543 0,-7.799 -2.139,-11.738 -4.199,-15.543 -1.928,-3.537 -3.747,-6.879 -3.747,-13.701 0,-6.834 1.819,-10.176 3.747,-13.719 2.06,-3.802 4.199,-7.734 4.199,-15.541 0,-7.796 -2.139,-11.73 -4.199,-15.539 -1.222,-2.246 -2.391,-4.414 -3.095,-7.439 h 26.951 c 0.775,3.949 2.213,6.658 3.632,9.271 1.92,3.543 3.742,6.885 3.742,13.707 0,6.825 -1.822,10.172 -3.742,13.713 -2.07,3.807 -4.208,7.742 -4.208,15.547 0,7.797 2.138,11.729 4.208,15.535 1.92,3.545 3.742,6.881 3.742,13.709 0,6.826 -1.822,10.178 -3.742,13.715 -2.07,3.805 -4.208,7.744 -4.208,15.541 0,7.805 2.138,11.74 4.208,15.553 C -1.875,-5.209 -0.696,-3.035 0,0 m -1.295,-1 c -0.678,-2.292 -1.653,-4.091 -2.68,-5.985 -2.127,-3.917 -4.325,-7.969 -4.325,-16.023 0,-8.058 2.201,-12.105 4.334,-16.028 1.86,-3.426 3.616,-6.662 3.616,-13.228 0,-6.545 -1.747,-9.771 -3.597,-13.187 l -0.026,-0.048 c -2.128,-3.913 -4.327,-7.96 -4.327,-16.009 0,-8.06 2.201,-12.109 4.341,-16.045 1.856,-3.424 3.609,-6.658 3.609,-13.215 0,-6.546 -1.75,-9.777 -3.621,-13.23 -1.276,-2.35 -2.71,-4.992 -3.563,-8.748 h -24.842 c 0.686,2.307 1.658,4.094 2.692,5.994 2.116,3.911 4.303,7.955 4.303,15.984 0,8.043 -2.189,12.084 -4.322,16.021 -1.863,3.426 -3.624,6.661 -3.624,13.239 0,6.572 1.761,9.803 3.635,13.241 2.12,3.915 4.311,7.962 4.311,16.003 0,8.045 -2.191,12.091 -4.321,16.022 -1.864,3.422 -3.625,6.654 -3.625,13.234 0,6.575 1.76,9.811 3.626,13.243 1.275,2.357 2.708,5.006 3.56,8.765 h 24.846"
         style="fill:#ffa07b;fill-opacity:1;fill-rule:nonzero;stroke:none"
         id="path2191" />
    </g>
    <path
       d="m 367.598,138.901 h -9.38 V 5.163 h 9.38 z m -1,-132.738 h -7.38 v 131.738 h 7.38 z"
       style="fill:#ffa07b;fill-opacity:1;fill-rule:nonzero;stroke:none"
       id="path2193" />
    <g
       id="g2195"
       transform="translate(421.2998,138.9033)">
      <path
         d="m 0,0 h -26.953 c -0.775,-3.955 -2.212,-6.672 -3.629,-9.289 -1.927,-3.545 -3.745,-6.887 -3.745,-13.719 0,-6.826 1.818,-10.174 3.745,-13.713 2.061,-3.802 4.201,-7.74 4.201,-15.543 0,-7.799 -2.14,-11.738 -4.201,-15.543 -1.927,-3.537 -3.745,-6.879 -3.745,-13.701 0,-6.834 1.818,-10.176 3.745,-13.719 2.061,-3.802 4.201,-7.734 4.201,-15.541 0,-7.796 -2.14,-11.73 -4.201,-15.539 -1.221,-2.246 -2.39,-4.414 -3.094,-7.439 h 26.951 c 0.775,3.949 2.213,6.658 3.632,9.271 1.92,3.543 3.742,6.885 3.742,13.707 0,6.825 -1.822,10.172 -3.742,13.713 -2.069,3.807 -4.209,7.742 -4.209,15.547 0,7.797 2.14,11.729 4.209,15.535 1.92,3.545 3.742,6.881 3.742,13.709 0,6.826 -1.822,10.178 -3.742,13.715 -2.069,3.805 -4.209,7.744 -4.209,15.541 0,7.805 2.14,11.74 4.209,15.553 C -1.875,-5.209 -0.697,-3.035 0,0 m -1.296,-1 c -0.678,-2.292 -1.653,-4.092 -2.681,-5.987 -2.126,-3.918 -4.325,-7.969 -4.325,-16.021 0,-8.056 2.202,-12.104 4.335,-16.026 1.86,-3.427 3.616,-6.663 3.616,-13.23 0,-6.546 -1.747,-9.772 -3.597,-13.188 l -0.027,-0.05 c -2.127,-3.913 -4.327,-7.959 -4.327,-16.006 0,-8.058 2.201,-12.107 4.341,-16.044 1.857,-3.424 3.61,-6.658 3.61,-13.216 0,-6.547 -1.75,-9.778 -3.621,-13.229 -1.275,-2.35 -2.71,-4.991 -3.563,-8.749 h -24.842 c 0.685,2.305 1.657,4.093 2.689,5.99 2.117,3.912 4.307,7.956 4.307,15.988 0,8.046 -2.192,12.088 -4.323,16.021 -1.863,3.425 -3.623,6.66 -3.623,13.239 0,6.572 1.76,9.803 3.631,13.237 2.121,3.916 4.315,7.963 4.315,16.007 0,8.048 -2.194,12.094 -4.323,16.022 -1.863,3.422 -3.623,6.654 -3.623,13.234 0,6.575 1.759,9.811 3.624,13.242 1.274,2.354 2.707,5 3.561,8.766 h 24.846"
         style="fill:#ffa07b;fill-opacity:1;fill-rule:nonzero;stroke:none"
         id="path2197" />
    </g>
    <path
       d="m 449.579,141.087 h -9.38 V 4.441 h 9.38 z m -1,-135.647 h -7.38 v 134.646 h 7.38 z"
       style="fill:#ffa07b;fill-opacity:1;fill-rule:nonzero;stroke:none"
       id="path2199" />
    <g
       id="g2201"
       transform="translate(487.6538,141.0029)">
      <path
         d="m 0,0 h -24.562 v -66.064 c -0.087,-0.485 -0.144,-0.989 -0.179,-1.506 -0.016,-0.221 -0.038,-0.44 -0.038,-0.668 v -0.004 c 0,-0.143 0.017,-0.278 0.024,-0.418 0.016,-0.377 0.047,-0.746 0.098,-1.104 0.032,-0.216 0.056,-0.437 0.095,-0.654 v -66.061 H 0 Z m -1,-1 v -134.479 h -22.562 v 65.061 0.087 l -0.016,0.086 c -0.022,0.128 -0.039,0.258 -0.056,0.387 l -0.033,0.236 c -0.044,0.305 -0.073,0.633 -0.089,1.014 l -0.013,0.179 c -0.004,0.062 -0.01,0.123 -0.01,0.191 0,0.149 0.012,0.293 0.023,0.437 l 0.012,0.163 c 0.035,0.511 0.089,0.969 0.166,1.398 l 0.016,0.087 V -66.064 -1 H -1"
         style="fill:#ffa07b;fill-opacity:1;fill-rule:nonzero;stroke:none"
         id="path2203" />
    </g>
    <g
       id="g2205"
       transform="translate(258.8794,141.1221)">
      <path
         d="m 0,0 h -32.747 c 0,-0.002 0,-0.004 0,-0.004 l -8.959,-0.002 v -138.176 h 0.789 32.75 42.529 v 0.008 138.168 H 22.966 0 c 0,0 0,0.004 0,0.006 M -1.13,-1 -1.131,-1.006 H 0 22.966 33.362 V -137.182 H -8.167 -40.706 V -1.006 l 7.959,0.002 h 1 V -1 H -1.13"
         style="fill:#ffa07b;fill-opacity:1;fill-rule:nonzero;stroke:none"
         id="path2207" />
    </g>
    <g
       id="g2209"
       transform="translate(545.9219,141.1689)">
      <path
         d="m 0,0 h -20.332 v -0.049 h -16.631 c -0.778,-4.056 -2.211,-6.834 -3.627,-9.519 -1.929,-3.633 -3.746,-7.059 -3.746,-14.055 0,-7 1.817,-10.426 3.746,-14.053 2.061,-3.9 4.2,-7.937 4.2,-15.928 0,-7.996 -2.139,-12.031 -4.2,-15.933 -1.929,-3.623 -3.746,-7.049 -3.746,-14.045 0,-6.998 1.817,-10.418 3.746,-14.051 2.061,-3.896 4.2,-7.933 4.2,-15.93 0,-7.996 -2.139,-12.021 -4.2,-15.921 -1.223,-2.303 -2.39,-4.526 -3.096,-7.627 h 23.354 3.598 H 0 Z m -1,-1 v -135.111 h -15.734 -3.598 -22.063 c 0.7,2.414 1.71,4.317 2.705,6.19 2.114,3.999 4.3,8.135 4.3,16.358 0,8.24 -2.193,12.383 -4.321,16.407 -1.865,3.512 -3.625,6.83 -3.625,13.574 0,6.757 1.762,10.068 3.64,13.598 2.117,4.006 4.306,8.15 4.306,16.38 0,8.229 -2.191,12.374 -4.318,16.398 -1.866,3.51 -3.628,6.826 -3.628,13.583 0,6.748 1.763,10.069 3.63,13.588 1.272,2.412 2.703,5.125 3.558,8.986 h 15.816 l 1,0.049 L -1,-1"
         style="fill:#ffa07b;fill-opacity:1;fill-rule:nonzero;stroke:none"
         id="path2211" />
    </g>
    <g
       id="g2213"
       transform="translate(22.1587,666.4883)">
      <path
         d="m 0,0 h -10.107 c -5.439,0 -9.847,-4.338 -9.847,-9.691 v -117.738 c 0,-5.348 4.408,-9.684 9.847,-9.684 H 0 Z m -1,-1 v -135.113 h -9.107 c -4.878,0 -8.847,3.896 -8.847,8.684 V -9.691 c 0,4.792 3.969,8.691 8.847,8.691 H -1"
         style="fill:#ffa07b;fill-opacity:1;fill-rule:nonzero;stroke:none"
         id="path2215" />
    </g>
    <g
       id="g2217"
       transform="translate(376.0645,666.4385)">
      <path
         d="m 0,0 v -138.181 c 25.011,3.827 45.651,20.501 54.861,42.935 h 48.414 v 52.308 H 54.861 C 45.651,-20.506 25.011,-3.83 0,0 m 1,-1.175 c 23.667,-4.032 43.881,-20.09 52.937,-42.142 l 0.254,-0.621 h 0.67 47.414 v -50.308 h -47.414 -0.67 l -0.254,-0.62 C 44.882,-116.92 24.667,-132.977 1,-137.006 V -1.175"
         style="fill:#ffa07b;fill-opacity:1;fill-rule:nonzero;stroke:none"
         id="path2219" />
    </g>
    <g
       id="g2221"
       transform="translate(572.8057,623.5039)">
      <path
         d="M 0,0 H -81.156 V -52.312 H 0 c 3.888,0 7.039,3.104 7.039,6.933 V -6.931 C 7.039,-3.105 3.888,0 0,0 m 0,-1 c 3.33,0 6.039,-2.661 6.039,-5.931 V -45.379 C 6.039,-48.65 3.33,-51.312 0,-51.312 H -80.156 V -1 H 0"
         style="fill:#ffa07b;fill-opacity:1;fill-rule:nonzero;stroke:none"
         id="path2223" />
    </g>
    <g
       id="g2225"
       transform="translate(270.2778,664.2217)">
      <path
         d="m 0,0 h -26.952 c 0.696,-3.037 1.874,-5.209 3.092,-7.455 2.069,-3.814 4.208,-7.748 4.208,-15.555 0,-7.797 -2.139,-11.736 -4.208,-15.541 -1.92,-3.536 -3.743,-6.887 -3.743,-13.714 0,-6.828 1.823,-10.165 3.743,-13.708 2.069,-3.806 4.208,-7.74 4.208,-15.537 0,-7.803 -2.139,-11.738 -4.208,-15.548 -1.92,-3.538 -3.743,-6.886 -3.743,-13.711 0,-6.822 1.823,-10.164 3.743,-13.707 1.419,-2.614 2.858,-5.323 3.632,-9.271 H 6.724 c -0.705,3.024 -1.873,5.193 -3.096,7.438 -2.06,3.809 -4.199,7.743 -4.199,15.54 0,7.806 2.139,11.737 4.199,15.541 1.928,3.544 3.747,6.885 3.747,13.718 0,6.822 -1.819,10.165 -3.747,13.701 -2.06,3.808 -4.199,7.746 -4.199,15.544 0,7.803 2.139,11.74 4.199,15.542 1.928,3.541 3.747,6.889 3.747,13.713 0,6.833 -1.819,10.176 -3.747,13.719 C 2.213,-6.674 0.774,-3.958 0,0 m -0.811,-1 c 0.852,-3.76 2.285,-6.41 3.561,-8.77 1.864,-3.426 3.625,-6.662 3.625,-13.24 0,-6.575 -1.761,-9.81 -3.635,-13.253 -2.119,-3.912 -4.311,-7.957 -4.311,-16.002 0,-8.036 2.19,-12.084 4.321,-16.022 1.864,-3.42 3.625,-6.65 3.625,-13.223 0,-6.574 -1.759,-9.809 -3.641,-13.269 -2.117,-3.909 -4.305,-7.95 -4.305,-15.99 0,-8.03 2.188,-12.075 4.321,-16.018 0.974,-1.789 1.977,-3.63 2.674,-5.96 h -24.841 c -0.854,3.754 -2.29,6.4 -3.583,8.783 -1.853,3.42 -3.603,6.649 -3.603,13.195 0,6.56 1.755,9.793 3.623,13.236 2.127,3.918 4.328,7.968 4.328,16.023 0,8.051 -2.201,12.099 -4.352,16.056 -1.85,3.416 -3.599,6.642 -3.599,13.189 0,6.566 1.756,9.801 3.621,13.236 2.128,3.914 4.33,7.961 4.33,16.019 0,8.054 -2.199,12.105 -4.336,16.043 -1.021,1.884 -1.993,3.679 -2.669,5.967 h 24.846"
         style="fill:#ffa07b;fill-opacity:1;fill-rule:nonzero;stroke:none"
         id="path2227" />
    </g>
    <path
       d="m 224.425,664.218 h -9.379 V 530.48 h 9.379 z m -1,-132.739 h -7.379 v 131.738 h 7.379 z"
       style="fill:#ffa07b;fill-opacity:1;fill-rule:nonzero;stroke:none"
       id="path2229" />
    <g
       id="g2231"
       transform="translate(188.2964,664.2217)">
      <path
         d="m 0,0 h -26.953 c 0.698,-3.037 1.875,-5.209 3.093,-7.455 2.069,-3.814 4.209,-7.748 4.209,-15.555 0,-7.797 -2.14,-11.736 -4.209,-15.541 -1.92,-3.536 -3.742,-6.887 -3.742,-13.714 0,-6.828 1.822,-10.165 3.742,-13.708 2.069,-3.806 4.209,-7.74 4.209,-15.537 0,-7.803 -2.14,-11.738 -4.209,-15.548 -1.92,-3.538 -3.742,-6.886 -3.742,-13.711 0,-6.822 1.822,-10.164 3.742,-13.707 1.419,-2.614 2.859,-5.323 3.631,-9.271 H 6.724 c -0.704,3.024 -1.874,5.193 -3.095,7.438 -2.061,3.809 -4.2,7.743 -4.2,15.54 0,7.806 2.139,11.737 4.2,15.541 1.927,3.544 3.745,6.885 3.745,13.718 0,6.822 -1.818,10.165 -3.745,13.701 -2.061,3.808 -4.2,7.746 -4.2,15.544 0,7.803 2.139,11.74 4.2,15.542 1.927,3.541 3.745,6.889 3.745,13.713 0,6.833 -1.818,10.176 -3.745,13.719 C 2.213,-6.674 0.775,-3.958 0,0 m -0.811,-1 c 0.853,-3.763 2.287,-6.412 3.562,-8.77 1.863,-3.426 3.623,-6.662 3.623,-13.24 0,-6.575 -1.76,-9.81 -3.632,-13.251 -2.121,-3.912 -4.313,-7.958 -4.313,-16.004 0,-8.037 2.191,-12.085 4.322,-16.022 1.863,-3.42 3.623,-6.65 3.623,-13.223 0,-6.575 -1.759,-9.809 -3.639,-13.268 -2.117,-3.908 -4.306,-7.95 -4.306,-15.991 0,-8.031 2.189,-12.076 4.321,-16.018 1.019,-1.873 1.99,-3.657 2.675,-5.96 h -24.843 c -0.852,3.754 -2.288,6.4 -3.579,8.778 -1.854,3.42 -3.605,6.651 -3.605,13.2 0,6.563 1.756,9.798 3.622,13.236 2.128,3.917 4.329,7.968 4.329,16.023 0,8.051 -2.202,12.099 -4.35,16.051 -1.852,3.417 -3.601,6.644 -3.601,13.194 0,6.57 1.757,9.806 3.62,13.236 2.129,3.914 4.331,7.961 4.331,16.019 0,8.054 -2.199,12.105 -4.333,16.036 -1.022,1.886 -1.995,3.683 -2.673,5.974 h 24.846"
         style="fill:#ffa07b;fill-opacity:1;fill-rule:nonzero;stroke:none"
         id="path2233" />
    </g>
    <path
       d="m 142.444,666.402 h -9.38 V 529.757 h 9.38 z m -1,-135.644 h -7.38 v 134.645 h 7.38 z"
       style="fill:#ffa07b;fill-opacity:1;fill-rule:nonzero;stroke:none"
       id="path2235" />
    <g
       id="g2237"
       transform="translate(119.5522,666.3213)">
      <path
         d="M 0,0 H -24.562 V -136.481 H 0 v 66.063 c 0.038,0.215 0.063,0.436 0.095,0.652 0.051,0.357 0.082,0.726 0.097,1.106 0.008,0.139 0.025,0.272 0.025,0.417 v 0.002 c 0,0.23 -0.023,0.447 -0.038,0.67 -0.035,0.517 -0.093,1.02 -0.179,1.506 z m -1,-1 v -65.065 -0.089 l 0.016,-0.087 c 0.076,-0.429 0.131,-0.899 0.165,-1.398 l 0.013,-0.18 c 0.011,-0.139 0.023,-0.277 0.023,-0.424 0,-0.066 -0.006,-0.128 -0.011,-0.191 l -0.013,-0.186 c -0.015,-0.37 -0.044,-0.697 -0.088,-1.003 l -0.03,-0.218 c -0.018,-0.136 -0.037,-0.271 -0.06,-0.405 L -1,-70.331 v -0.087 -65.063 H -23.562 V -1 H -1"
         style="fill:#ffa07b;fill-opacity:1;fill-rule:nonzero;stroke:none"
         id="path2239" />
    </g>
    <g
       id="g2241"
       transform="translate(356.5107,666.4385)">
      <path
         d="m 0,0 h -32.747 c 0,-0.002 10e-4,-0.004 10e-4,-0.005 h -22.966 -11.396 v -138.169 -0.007 H -24.578 8.17 8.96 V -0.005 H 0 C 0,-0.002 0,-0.002 0,0 m -1,-1 v -0.005 h 1 7.96 v -136.176 h -32.538 -41.53 V -1.005 h 10.396 22.966 1 V -1 H -1"
         style="fill:#ffa07b;fill-opacity:1;fill-rule:nonzero;stroke:none"
         id="path2243" />
    </g>
    <g
       id="g2245"
       transform="translate(57.0542,666.4883)">
      <path
         d="M 0,0 H -20.333 V -137.113 H -3.599 0 23.354 c -0.706,3.1 -1.874,5.324 -3.096,7.625 -2.062,3.9 -4.2,7.927 -4.2,15.925 0,7.994 2.138,12.031 4.2,15.927 1.928,3.632 3.745,7.055 3.745,14.051 0,6.997 -1.817,10.422 -3.745,14.045 -2.062,3.904 -4.2,7.937 -4.2,15.934 0,7.991 2.138,12.027 4.2,15.926 1.928,3.628 3.745,7.054 3.745,14.054 0,6.996 -1.817,10.423 -3.745,14.055 -1.416,2.685 -2.849,5.464 -3.627,9.519 L 0,-0.052 Z m -1,-1 v -0.052 h 1 15.816 c 0.854,-3.859 2.285,-6.573 3.559,-8.988 1.866,-3.515 3.628,-6.835 3.628,-13.586 0,-6.757 -1.762,-10.073 -3.636,-13.6 -2.119,-4.007 -4.309,-8.15 -4.309,-16.38 0,-8.227 2.187,-12.37 4.317,-16.404 1.866,-3.506 3.628,-6.818 3.628,-13.575 0,-6.747 -1.762,-10.067 -3.633,-13.591 -2.12,-4.007 -4.312,-8.15 -4.312,-16.387 0,-8.227 2.186,-12.364 4.317,-16.395 0.979,-1.843 1.988,-3.741 2.687,-6.155 H 0 -3.599 -19.333 V -1 H -1"
         style="fill:#ffa07b;fill-opacity:1;fill-rule:nonzero;stroke:none"
         id="path2247" />
    </g>
    <g
       id="g2249"
       transform="translate(574.5996,495.3252)">
      <path
         d="M 0,0 H -10.221 V -138.662 H 0 c 5.496,0 9.953,4.385 9.953,9.795 V -9.794 C 9.953,-4.382 5.496,0 0,0 m 0,-1 c 4.937,0 8.953,-3.945 8.953,-8.794 v -119.073 c 0,-4.85 -4.016,-8.795 -8.953,-8.795 H -9.221 V -1 H 0"
         style="fill:#ffa07b;fill-opacity:1;fill-rule:nonzero;stroke:none"
         id="path2251" />
    </g>
    <g
       id="g2253"
       transform="translate(209.1777,495.3252)">
      <path
         d="m 0,0 c -25.098,-3.839 -45.812,-20.576 -55.053,-43.082 h -48.581 V -95.58 h 48.581 c 9.241,-22.506 29.955,-39.238 55.053,-43.082 z m -1,-1.174 v -136.313 c -23.753,4.045 -44.042,20.159 -53.128,42.287 l -0.255,0.62 h -0.67 -47.581 v 50.498 h 47.581 0.67 l 0.255,0.62 C -45.04,-21.329 -24.751,-5.215 -1,-1.174"
         style="fill:#ffa07b;fill-opacity:1;fill-rule:nonzero;stroke:none"
         id="path2255" />
    </g>
    <g
       id="g2257"
       transform="translate(93.189,452.2412)">
      <path
         d="m 0,0 h -81.438 c -3.9,0 -7.063,-3.116 -7.063,-6.958 v -38.581 c 0,-3.842 3.163,-6.957 7.063,-6.957 H 0 Z m -1,-1 v -50.496 h -80.438 c -3.343,0 -6.063,2.672 -6.063,5.957 v 38.581 c 0,3.285 2.72,5.958 6.063,5.958 L -1,-1"
         style="fill:#ffa07b;fill-opacity:1;fill-rule:nonzero;stroke:none"
         id="path2259" />
    </g>
    <g
       id="g2261"
       transform="translate(296.1138,495.4639)">
      <path
         d="m 0,0 h -77.802 v -0.48 -8.981 -13.446 -18.925 -17.822 -18.924 -18.533 -18.924 -13.442 -9.462 H 0 0.028 V -0.48 H 0 Z m -0.985,-1 0.013,-0.48 v -136.459 h -75.83 v 8.462 13.442 18.924 18.533 18.924 17.822 18.925 V -9.461 -1 Z"
         style="fill:#ffa07b;fill-opacity:1;fill-rule:nonzero;stroke:none"
         id="path2263" />
    </g>
    <g
       id="g2265"
       transform="translate(373.7129,495.4639)">
      <path
         d="M 0,0 H -62.802 V -9.461 H -9.39 V -22.907 H -62.802 V -41.832 H -9.39 V -59.653 H -62.802 V -78.578 H -9.39 v -18.533 h -53.412 v -18.924 H -9.39 v -13.44 h -53.412 v -9.464 H -9.39 0 0.022 V -0.48 H 0 Z m -0.989,-1 0.011,-0.48 V -137.939 H -9.39 -61.802 v 7.464 h 52.412 1 v 1 13.44 1 h -1 -52.412 v 16.924 h 52.412 1 v 1 18.533 1 h -1 -52.412 v 16.925 h 52.412 1 v 1 17.821 1 h -1 -52.412 v 16.925 h 52.412 1 v 1 13.446 1 h -1 -52.412 V -1 Z"
         style="fill:#ffa07b;fill-opacity:1;fill-rule:nonzero;stroke:none"
         id="path2267" />
    </g>
    <path
       d="m 491.228,379.429 h 43.955 V 365.99 h -43.955 z m 0,37.457 h 43.955 v -18.533 h -43.955 z m 0,36.746 h 43.955 v -17.821 h -43.955 z m 0,32.371 h 43.955 v -13.446 h -43.955 z m 60.826,9.461 h -8.436 -8.435 -53.369 v -0.481 -8.98 -13.446 -18.925 -17.821 -18.925 -18.533 -18.924 -13.44 -9.465 h 9.414 43.955 8.435 8.436 z M 490.228,364.989 h 1 43.955 1 v 1 13.44 1 h -1 -43.955 -1 v -1 -13.44 -1 m 0,32.364 h 1 43.955 1 v 1 18.533 1 h -1 -43.955 -1 v -1 -18.533 -1 m 0,37.458 h 1 43.955 1 v 1 17.821 1 h -1 -43.955 -1 v -1 -17.821 -1 m 0,36.746 h 1 43.955 1 v 1 13.446 1 h -1 -43.955 -1 v -1 -13.446 -1 m 60.826,22.907 v -136.94 h -7.436 -8.435 -43.955 -8.414 v 8.465 13.44 18.924 18.533 18.925 17.821 18.925 13.446 8.461 h 52.369 8.435 z"
       style="fill:#ffa07b;fill-opacity:1;fill-rule:nonzero;stroke:none"
       id="path2269" />
    <path
       d="m 466.072,435.811 h -77.314 v -18.925 h 77.314 z m -1,-17.925 h -75.314 v 16.925 h 75.314 z"
       style="fill:#ffa07b;fill-opacity:1;fill-rule:nonzero;stroke:none"
       id="path2271" />
    <path
       d="m 466.072,398.353 h -77.314 v -18.924 h 77.314 z m -1,-17.924 h -75.314 v 16.924 h 75.314 z"
       style="fill:#ffa07b;fill-opacity:1;fill-rule:nonzero;stroke:none"
       id="path2273" />
    <path
       d="m 466.072,365.989 h -77.314 v -9.465 h 77.314 z m -1,-8.465 h -75.314 v 7.465 h 75.314 z"
       style="fill:#ffa07b;fill-opacity:1;fill-rule:nonzero;stroke:none"
       id="path2275" />
    <path
       d="m 466.072,472.557 h -77.314 v -18.925 h 77.314 z m -1,-17.925 h -75.314 v 16.925 h 75.314 z"
       style="fill:#ffa07b;fill-opacity:1;fill-rule:nonzero;stroke:none"
       id="path2277" />
    <path
       d="m 466.072,495.464 h -77.314 v -9.461 h 77.314 z m -1,-8.461 h -75.314 v 7.461 h 75.314 z"
       style="fill:#ffa07b;fill-opacity:1;fill-rule:nonzero;stroke:none"
       id="path2279" />
    <path
       d="M 487.038,231.548 H 108.243 v 378.794 h 378.795 z"
       style="fill:#6b3454;fill-opacity:1;fill-rule:nonzero;stroke:none"
       id="path2281" />
    <g
       id="g2283"
       transform="translate(279.6582,351.6797)">
      <path
         d="m 0,0 v -2.625 c 0,-1.411 1.145,-2.556 2.557,-2.556 h 31.071 c 1.412,0 2.556,1.145 2.556,2.556 V 0 Z"
         style="fill:#ffa07b;fill-opacity:1;fill-rule:nonzero;stroke:none"
         id="path2285" />
    </g>
    <g
       id="g2287"
       transform="translate(319.1055,351.7451)">
      <path
         d="m 0,0 v -2.624 c 0,-1.412 1.144,-2.557 2.555,-2.557 h 31.071 c 1.412,0 2.558,1.145 2.558,2.557 V 0 Z"
         style="fill:#ffa07b;fill-opacity:1;fill-rule:nonzero;stroke:none"
         id="path2289" />
    </g>
    <g
       id="g2291"
       transform="translate(240,351.6797)">
      <path
         d="m 0,0 v -2.625 c 0,-1.411 1.152,-2.556 2.571,-2.556 h 31.264 c 1.421,0 2.572,1.145 2.572,2.556 V 0 Z"
         style="fill:#ffa07b;fill-opacity:1;fill-rule:nonzero;stroke:none"
         id="path2293" />
    </g>
    <g
       id="g2295"
       transform="translate(267.4687,362.2441)">
      <path
         d="M 0,0 -4.638,5.479 -9.275,0 -13.913,5.479 -18.552,0 -23.191,5.479 -27.479,0.414 V -4.82 l 4.288,5.062 4.639,-5.477 4.639,5.477 4.638,-5.477 4.637,5.477 L 0,-5.235 4.64,0.242 8.938,-4.833 V 0.404 L 4.64,5.479 Z"
         style="fill:#ffa07b;fill-opacity:1;fill-rule:nonzero;stroke:none"
         id="path2297" />
    </g>
    <g
       id="g2299"
       transform="translate(265.1982,457.0195)">
      <path
         d="M 0,0 V 12.475 H -13.698 V 0 C -19.571,-2.373 -23.937,-7.691 -24.94,-14.136 H 11.242 C 10.24,-7.691 5.873,-2.373 0,0"
         style="fill:#ffa07b;fill-opacity:1;fill-rule:nonzero;stroke:none"
         id="path2301" />
    </g>
    <g
       id="g2303"
       transform="translate(344.0439,457.0195)">
      <path
         d="M 0,0 V 12.475 H -13.697 V 0 c -5.874,-2.373 -10.24,-7.691 -11.242,-14.136 H 11.243 C 10.24,-7.691 5.874,-2.373 0,0"
         style="fill:#ffa07b;fill-opacity:1;fill-rule:nonzero;stroke:none"
         id="path2305" />
    </g>
    <g
       id="g2307"
       transform="translate(304.5635,457.0195)">
      <path
         d="M 0,0 V 12.475 H -13.698 V 0 c -5.873,-2.373 -10.24,-7.691 -11.243,-14.136 H 11.242 C 10.24,-7.691 5.873,-2.373 0,0"
         style="fill:#ffa07b;fill-opacity:1;fill-rule:nonzero;stroke:none"
         id="path2309" />
    </g>
    <g
       id="g2311"
       transform="translate(263.4902,495.3906)">
      <path
         d="m 0,0 h -10.069 c -1.001,0 -1.814,-0.812 -1.814,-1.813 V -22.724 H 1.814 V -1.813 C 1.814,-0.812 1.002,0 0,0"
         style="fill:#ffa07b;fill-opacity:1;fill-rule:nonzero;stroke:none"
         id="path2313" />
    </g>
    <g
       id="g2315"
       transform="translate(342.3359,495.3906)">
      <path
         d="m 0,0 h -10.067 c -1.002,0 -1.816,-0.812 -1.816,-1.813 V -22.724 H 1.815 V -1.813 C 1.815,-0.812 1.002,0 0,0"
         style="fill:#ffa07b;fill-opacity:1;fill-rule:nonzero;stroke:none"
         id="path2317" />
    </g>
    <g
       id="g2319"
       transform="translate(302.7842,495.3906)">
      <path
         d="m 0,0 h -10.067 c -1.004,0 -1.816,-0.812 -1.816,-1.813 V -22.724 H 1.815 V -1.813 C 1.815,-0.812 1.002,0 0,0"
         style="fill:#ffa07b;fill-opacity:1;fill-rule:nonzero;stroke:none"
         id="path2321" />
    </g>
    <g
       id="g2323"
       transform="translate(349.0449,366.8721)">
      <path
         d="m 0,0 c -1.846,0 -2.75,-0.469 -3.706,-0.966 -1.029,-0.531 -2.093,-1.082 -4.201,-1.082 -2.109,0 -3.173,0.551 -4.201,1.082 -0.956,0.497 -1.86,0.966 -3.705,0.966 -1.846,0 -2.749,-0.469 -3.707,-0.966 -1.027,-0.531 -2.092,-1.082 -4.201,-1.082 -2.108,0 -3.171,0.551 -4.2,1.082 -0.606,0.316 -1.193,0.616 -2.011,0.798 v -6.944 c 1.068,-0.2 1.8,-0.571 2.505,-0.937 0.958,-0.494 1.863,-0.964 3.706,-0.964 1.845,0 2.749,0.47 3.705,0.964 1.031,0.534 2.095,1.085 4.203,1.085 2.107,0 3.171,-0.551 4.2,-1.085 0.958,-0.494 1.859,-0.964 3.706,-0.964 1.845,0 2.749,0.47 3.705,0.964 1.03,0.534 2.094,1.085 4.202,1.085 2.108,0 3.173,-0.551 4.203,-1.085 0.608,-0.313 1.195,-0.616 2.015,-0.796 V -1.9 C 5.148,-1.699 4.415,-1.33 3.707,-0.966 2.749,-0.469 1.846,0 0,0"
         style="fill:#ffa07b;fill-opacity:1;fill-rule:nonzero;stroke:none"
         id="path2325" />
    </g>
    <g
       id="g2327"
       transform="translate(341.1514,372.8779)">
      <path
         d="m 0,0 h -1.21 c 0.191,0.013 0.391,0.021 0.605,0.021 C -0.391,0.021 -0.192,0.013 0,0"
         style="fill:#ffa07b;fill-opacity:1;fill-rule:nonzero;stroke:none"
         id="path2329" />
    </g>
    <g
       id="g2331"
       transform="translate(325.7178,372.8779)">
      <path
         d="M 0,0 H -1.212 C -1.019,0.013 -0.82,0.021 -0.606,0.021 -0.391,0.021 -0.193,0.013 0,0"
         style="fill:#ffa07b;fill-opacity:1;fill-rule:nonzero;stroke:none"
         id="path2333" />
    </g>
    <g
       id="g2335"
       transform="translate(247.0898,398.2646)">
      <path
         d="m 0,0 v 0.253 c 0.328,0.252 0.606,0.86 0.152,2.049 l -5.563,12.363 c -0.556,1.239 -1.036,2.148 -1.643,2.781 v 0.253 H 1.77 V 17.446 C 0.859,16.84 0.202,15.221 0.935,13.174 L 3.49,6.042 6.245,13.174 c 0.784,2.022 0.126,3.666 -0.835,4.272 v 0.253 h 8.193 v -0.253 c -0.759,-0.86 -1.213,-1.87 -1.972,-3.489 L 6.271,2.478 C 5.714,1.162 5.992,0.531 6.347,0.253 V 0 Z"
         style="fill:#ffa07b;fill-opacity:1;fill-rule:nonzero;stroke:none"
         id="path2337" />
    </g>
    <g
       id="g2339"
       transform="translate(260.0596,398.2646)">
      <path
         d="m 0,0 v 0.253 c 1.188,0.505 1.744,1.39 1.744,3.084 v 11.024 c 0,1.694 -0.556,2.579 -1.744,3.085 v 0.253 H 8.546 V 17.446 C 7.357,16.94 6.801,16.055 6.801,14.361 V 3.337 c 0,-1.694 0.556,-2.579 1.745,-3.084 V 0 Z"
         style="fill:#ffa07b;fill-opacity:1;fill-rule:nonzero;stroke:none"
         id="path2341" />
    </g>
    <g
       id="g2343"
       transform="translate(281.1963,398.2646)">
      <path
         d="m 0,0 v 0.253 c 0.985,0.329 1.744,1.062 1.744,2.073 0,2.198 -2.3,4.932 -7.027,9.154 V 3.337 c 0,-1.694 0.555,-2.579 1.744,-3.084 V 0 h -8.546 v 0.253 c 1.189,0.505 1.744,1.39 1.744,3.084 v 11.024 c 0,1.694 -0.555,2.579 -1.744,3.085 v 0.253 l 6.802,-0.026 7.027,-7.232 v 3.92 c 0,1.694 -0.555,2.579 -1.744,3.085 v 0.253 H 8.546 V 17.446 C 7.357,16.94 6.802,16.055 6.802,14.361 V 3.337 c 0,-1.694 0.555,-2.579 1.744,-3.084 V 0 Z"
         style="fill:#ffa07b;fill-opacity:1;fill-rule:nonzero;stroke:none"
         id="path2345" />
    </g>
    <g
       id="g2347"
       transform="translate(305.1406,407.0879)">
      <path
         d="m 0,0 c 0,3.312 -2.099,5.235 -4.804,5.235 -2.68,0 -4.779,-1.923 -4.779,-5.235 0,-3.285 2.099,-5.207 4.779,-5.207 C -2.099,-5.207 0,-3.285 0,0 m -4.804,-9.254 c -5.158,0 -9.836,3.44 -9.836,9.254 0,6.068 4.678,9.28 9.836,9.28 5.183,0 9.861,-3.212 9.861,-9.28 0,-5.814 -4.678,-9.254 -9.861,-9.254"
         style="fill:#ffa07b;fill-opacity:1;fill-rule:nonzero;stroke:none"
         id="path2349" />
    </g>
    <g
       id="g2351"
       transform="translate(325.291,402.3096)">
      <path
         d="m 0,0 c 3.135,0 4.728,1.922 4.728,4.854 0,3.162 -1.821,4.753 -4.475,4.753 H -2.479 V 0 Z m -9.28,-4.045 v 0.253 c 1.138,0.48 1.745,1.567 1.77,3.084 v 11.024 c 0,1.973 -0.885,2.783 -1.77,3.085 v 0.253 h 9.457 c 5.182,0 9.608,-2.705 9.608,-8.8 0,-5.788 -4.173,-8.899 -9.608,-8.899 z"
         style="fill:#ffa07b;fill-opacity:1;fill-rule:nonzero;stroke:none"
         id="path2353" />
    </g>
    <g
       id="g2355"
       transform="translate(335.833,398.2646)">
      <path
         d="m 0,0 v 0.253 c 1.113,0.355 1.744,1.44 1.744,3.084 v 10.999 c 0,1.694 -0.555,2.706 -1.744,3.11 v 0.253 h 12.06 c 2.529,0 3.086,0.353 3.086,0.353 l 1.086,-5.233 -0.227,-0.077 c -0.506,0.405 -1.316,0.91 -3.185,0.91 H 6.802 V 9.759 c 0.581,1.163 1.922,1.972 3.69,1.972 2.353,0 3.946,-1.263 3.946,-3.085 0,-1.517 -1.291,-2.299 -2.579,-2.299 0,0.708 -0.532,1.416 -1.82,1.416 -1.721,0 -3.237,-1.492 -3.237,-3.717 h 6.27 c 1.745,0 2.68,0.682 3.414,1.339 l 0.201,-0.101 -1.037,-5.79 c 0,0 -0.783,0.506 -3.337,0.506 z"
         style="fill:#ffa07b;fill-opacity:1;fill-rule:nonzero;stroke:none"
         id="path2357" />
    </g>
    <g
       id="g2359"
       transform="translate(257.3555,388.9531)">
      <path
         d="m 0,0 c -1.441,1.339 -3.313,2.3 -5.942,2.3 -3.287,0 -5.31,-1.898 -5.31,-5.058 0,-2.882 1.846,-5.283 5.285,-5.283 3.185,0 4.5,1.947 4.5,4.045 1.29,0 2.63,-0.86 2.63,-2.605 0,-2.755 -2.35,-5.561 -7.686,-5.561 -5.79,0 -9.786,4.247 -9.786,9.429 0,5.765 4.728,9.078 10.241,9.078 2.225,0 3.792,-0.682 4.677,-0.682 0.606,0 1.037,0.151 1.289,0.328 l 0.405,-5.94 z"
         style="fill:#ffa07b;fill-opacity:1;fill-rule:nonzero;stroke:none"
         id="path2361" />
    </g>
    <g
       id="g2363"
       transform="translate(268.1748,390.8232)">
      <path
         d="m 0,0 h -0.403 l -1.921,-5.966 h 4.221 z m 1.873,-13.629 v 0.253 c 0.959,0.405 1.793,1.821 1.161,3.919 h -6.472 c -0.631,-2.098 0.202,-3.514 1.163,-3.919 v -0.253 h -8.141 v 0.253 c 0.581,0.43 0.961,1.036 1.644,2.73 0.783,1.948 2.832,8.445 3.513,10.546 0.911,2.754 -0.099,3.716 -0.858,3.917 V 4.07 H 6.221 V 3.817 C 5.463,3.616 4.45,2.654 5.361,-0.1 c 0.683,-2.101 2.933,-8.977 3.515,-10.546 0.657,-1.768 1.263,-2.426 1.643,-2.73 v -0.253 z"
         style="fill:#ffa07b;fill-opacity:1;fill-rule:nonzero;stroke:none"
         id="path2365" />
    </g>
    <g
       id="g2367"
       transform="translate(290.5264,377.1943)">
      <path
         d="m 0,0 v 0.253 c 0.986,0.329 1.745,1.063 1.745,2.073 0,2.201 -2.301,4.932 -7.029,9.154 V 3.338 c 0,-1.694 0.555,-2.58 1.744,-3.085 V 0 h -8.545 v 0.253 c 1.188,0.505 1.744,1.391 1.744,3.085 v 11.024 c 0,1.694 -0.556,2.578 -1.744,3.084 v 0.253 l 6.801,-0.026 7.029,-7.23 v 3.919 c 0,1.694 -0.556,2.578 -1.745,3.084 v 0.253 H 8.546 V 17.446 C 7.357,16.94 6.802,16.056 6.802,14.362 V 3.338 c 0,-1.694 0.555,-2.58 1.744,-3.085 V 0 Z"
         style="fill:#ffa07b;fill-opacity:1;fill-rule:nonzero;stroke:none"
         id="path2369" />
    </g>
    <g
       id="g2371"
       transform="translate(313.332,391.5312)">
      <path
         d="m 0,0 c 0,1.818 -0.658,2.706 -1.693,3.109 v 0.253 h 8.57 V 3.109 C 5.968,2.729 5.107,1.896 5.107,0 v -6.827 c -0.1,-5.108 -3.742,-7.913 -8.646,-7.913 -4.88,0 -8.496,2.78 -8.496,7.913 V 0 c 0,1.72 -0.734,2.679 -1.718,3.109 v 0.253 h 8.57 V 3.135 C -6.27,2.757 -6.978,1.818 -6.978,0 v -6.853 c 0,-2.174 1.037,-3.841 3.439,-3.841 2.377,0 3.539,1.667 3.539,3.841 z"
         style="fill:#ffa07b;fill-opacity:1;fill-rule:nonzero;stroke:none"
         id="path2373" />
    </g>
    <g
       id="g2375"
       transform="translate(323.7734,377.1943)">
      <path
         d="M 0,0 V 0.253 C 1.188,0.758 1.745,1.644 1.745,3.338 V 13.652 H 0.658 c -1.997,0 -2.833,-0.149 -3.767,-0.883 l -0.203,0.101 0.961,5.132 c 0,0 0.987,-0.303 2.629,-0.303 h 7.99 c 1.644,0 2.63,0.303 2.63,0.303 l 0.96,-5.132 -0.202,-0.101 C 10.722,13.503 9.887,13.652 7.89,13.652 H 6.802 V 3.338 c 0,-1.694 0.556,-2.58 1.745,-3.085 V 0 Z"
         style="fill:#ffa07b;fill-opacity:1;fill-rule:nonzero;stroke:none"
         id="path2377" />
    </g>
    <g
       id="g2379"
       transform="translate(350.1445,386.0186)">
      <path
         d="m 0,0 c 0,3.313 -2.099,5.234 -4.804,5.234 -2.68,0 -4.778,-1.921 -4.778,-5.234 0,-3.287 2.098,-5.208 4.778,-5.208 C -2.099,-5.208 0,-3.287 0,0 m -4.804,-9.253 c -5.157,0 -9.836,3.439 -9.836,9.253 0,6.068 4.679,9.279 9.836,9.279 5.184,0 9.862,-3.211 9.862,-9.279 0,-5.814 -4.678,-9.253 -9.862,-9.253"
         style="fill:#ffa07b;fill-opacity:1;fill-rule:nonzero;stroke:none"
         id="path2381" />
    </g>
    <g
       id="g2383"
       transform="translate(315.8789,436.6855)">
      <path
         d="M 0,0 H -2.47 V -13.715 H -5.978 V 0 h -4.938 v -13.715 h -4.651 V 0 h -4.939 v -13.715 h -4.836 V 0 h -4.937 v -13.715 h -3.508 V 0 h -2.47 v -13.715 -2.411 -0.006 h 36.131 v 0.006 H 0 Z"
         style="fill:#ffa07b;fill-opacity:1;fill-rule:nonzero;stroke:none"
         id="path2385" />
    </g>
    <g
       id="g2387"
       transform="translate(349.0664,436.6855)">
      <path
         d="m 0,0 c -1.846,0 -2.752,-0.469 -3.709,-0.965 -1.029,-0.531 -2.094,-1.082 -4.204,-1.082 -2.109,0 -3.175,0.551 -4.205,1.082 -0.956,0.496 -1.86,0.965 -3.705,0.965 -1.849,0 -2.752,-0.469 -3.71,-0.965 -1.029,-0.531 -2.093,-1.082 -4.204,-1.082 -2.11,0 -3.173,0.551 -4.203,1.082 -0.608,0.316 -1.195,0.615 -2.012,0.798 v -6.945 c 1.067,-0.2 1.801,-0.57 2.507,-0.936 0.959,-0.494 1.862,-0.964 3.708,-0.964 1.845,0 2.751,0.47 3.709,0.964 1.03,0.533 2.094,1.085 4.205,1.085 2.108,0 3.173,-0.552 4.202,-1.085 0.959,-0.494 1.861,-0.964 3.708,-0.964 1.847,0 2.753,0.47 3.71,0.964 1.028,0.533 2.094,1.085 4.203,1.085 2.111,0 3.176,-0.552 4.207,-1.085 0.607,-0.313 1.195,-0.617 2.017,-0.797 v 6.946 C 5.152,-1.7 4.419,-1.33 3.711,-0.965 2.752,-0.469 1.848,0 0,0"
         style="fill:#ffa07b;fill-opacity:1;fill-rule:nonzero;stroke:none"
         id="path2389" />
    </g>
    <path
       d="m 355.287,420.554 h -36.173 v 2.417 h 36.173 z"
       style="fill:#ffa07b;fill-opacity:1;fill-rule:nonzero;stroke:none"
       id="path2391" />
    <g
       id="g2393"
       transform="translate(249.0498,426.502)">
      <path
         d="M 0,0 4.622,5.477 9.243,0 13.863,5.477 18.484,0 23.106,5.477 27.392,0.402 V 5.638 L 23.106,10.711 18.484,5.234 13.863,10.711 9.243,5.234 4.622,10.711 -0.001,5.234 -4.622,10.711 -8.895,5.65 V 0.414 l 4.273,5.063 z"
         style="fill:#ffa07b;fill-opacity:1;fill-rule:nonzero;stroke:none"
         id="path2395" />
    </g>
    <path
       d="m 276.48,420.554 h -36.251 v 2.417 h 36.251 z"
       style="fill:#ffa07b;fill-opacity:1;fill-rule:nonzero;stroke:none"
       id="path2397" />
    <g
       id="g2399"
       transform="translate(315.7529,372.8799)">
      <path
         d="m 0,0 h -2.344 -3.508 -4.938 -4.651 -4.939 -4.836 -4.937 -3.508 -2.47 V -2.417 -15.87 h 2.47 v 13.453 h 3.508 V -15.87 h 4.937 v 13.453 h 4.836 V -15.87 h 4.939 v 13.453 h 4.651 V -15.87 h 4.938 v 13.453 h 3.508 V -15.87 h 2.47 V 0 Z"
         style="fill:#ffa07b;fill-opacity:1;fill-rule:nonzero;stroke:none"
         id="path2401" />
    </g>
    <path
       d="m 355.263,370.461 h -36.131 v 2.417 h 36.131 z"
       style="fill:#ffa07b;fill-opacity:1;fill-rule:nonzero;stroke:none"
       id="path2403" />
    <path
       d="m 276.407,370.463 h -36.252 v 2.417 h 36.252 z"
       style="fill:#ffa07b;fill-opacity:1;fill-rule:nonzero;stroke:none"
       id="path2405" />
    <g
       id="g2407"
       transform="translate(134.605,294.1064)">
      <path
         d="M 0,0 H 331.739"
         style="fill:none;stroke:#ffa07b;stroke-width:1;stroke-linecap:butt;stroke-linejoin:miter;stroke-miterlimit:10;stroke-dasharray:none;stroke-opacity:1"
         id="path2409" />
    </g>
    <g
       id="g2411"
       transform="translate(134.605,275.6064)">
      <path
         d="M 0,0 H 331.739"
         style="fill:none;stroke:#ffa07b;stroke-width:1;stroke-linecap:butt;stroke-linejoin:miter;stroke-miterlimit:10;stroke-dasharray:none;stroke-opacity:1"
         id="path2413" />
    </g>
  </g>
</svg>
