<?xml version="1.0" encoding="UTF-8" standalone="no"?>
<!-- Created with Inkscape (http://www.inkscape.org/) -->

<svg
   width="210mm"
   height="297mm"
   viewBox="0 0 210 297"
   version="1.1"
   id="svg2804"
   inkscape:version="1.2.2 (732a01da63, 2022-12-09)"
   sodipodi:docname="logo canuto.svg"
   xmlns:inkscape="http://www.inkscape.org/namespaces/inkscape"
   xmlns:sodipodi="http://sodipodi.sourceforge.net/DTD/sodipodi-0.dtd"
   xmlns="http://www.w3.org/2000/svg"
   xmlns:svg="http://www.w3.org/2000/svg">
  <sodipodi:namedview
     id="namedview2806"
     pagecolor="#ffffff"
     bordercolor="#000000"
     borderopacity="0.25"
     inkscape:showpageshadow="2"
     inkscape:pageopacity="0.0"
     inkscape:pagecheckerboard="0"
     inkscape:deskcolor="#d1d1d1"
     inkscape:document-units="mm"
     showgrid="false"
     inkscape:zoom="0.74564394"
     inkscape:cx="396.97231"
     inkscape:cy="561.9304"
     inkscape:window-width="1920"
     inkscape:window-height="1017"
     inkscape:window-x="-8"
     inkscape:window-y="-8"
     inkscape:window-maximized="1"
     inkscape:current-layer="layer1" />
  <defs
     id="defs2801" />
  <g
     inkscape:label="Capa 1"
     inkscape:groupmode="layer"
     id="layer1">
    <g
       id="g1223"
       transform="matrix(2.9682826,0,0,-3.0414769,27.66072,282.93303)">
      <path
         d="M 0,0 H 53.677"
         style="fill:none;stroke:#000000;stroke-width:1;stroke-linecap:butt;stroke-linejoin:miter;stroke-miterlimit:10;stroke-dasharray:none;stroke-opacity:1"
         id="path1225" />
    </g>
    <g
       id="g1227"
       transform="matrix(2.9682826,0,0,-3.0414769,80.405623,242.63955)">
      <path
         d="m 0,0 v -1.316 c 0,-0.707 0.573,-1.28 1.281,-1.28 h 15.574 c 0.708,0 1.282,0.573 1.282,1.28 V 0 Z"
         style="fill:#000000;fill-opacity:1;fill-rule:nonzero;stroke:none"
         id="path1229" />
    </g>
    <g
       id="g1231"
       transform="matrix(2.9682826,0,0,-3.0414769,139.09597,242.5386)">
      <path
         d="m 0,0 v -1.314 c 0,-0.708 0.574,-1.284 1.281,-1.284 h 15.574 c 0.708,0 1.283,0.576 1.283,1.284 V 0 Z"
         style="fill:#000000;fill-opacity:1;fill-rule:nonzero;stroke:none"
         id="path1233" />
    </g>
    <g
       id="g1235"
       transform="matrix(2.9682826,0,0,-3.0414769,21.39943,242.63955)">
      <path
         d="m 0,0 v -1.316 c 0,-0.707 0.578,-1.28 1.289,-1.28 H 16.96 c 0.712,0 1.29,0.573 1.29,1.28 V 0 Z"
         style="fill:#000000;fill-opacity:1;fill-rule:nonzero;stroke:none"
         id="path1237" />
    </g>
    <g
       id="g1239"
       transform="matrix(2.9682826,0,0,-3.0414769,62.2715,226.52922)">
      <path
         d="M 0,0 -2.326,2.746 -4.649,0 -6.975,2.746 -9.3,0 -11.626,2.746 -13.774,0.207 v -2.625 l 2.148,2.539 2.326,-2.746 2.325,2.746 2.326,-2.746 2.323,2.746 L 0,-2.625 2.325,0.121 4.48,-2.424 V 0.202 L 2.325,2.746 Z"
         style="fill:#000000;fill-opacity:1;fill-rule:nonzero;stroke:none"
         id="path1241" />
    </g>
    <g
       id="g1243"
       transform="matrix(2.9682826,0,0,-3.0414769,58.891501,82.041439)">
      <path
         d="M 0,0 V 6.252 H -6.866 V 0 c -2.945,-1.189 -5.133,-3.855 -5.636,-7.086 H 5.635 C 5.133,-3.855 2.943,-1.189 0,0"
         style="fill:#000000;fill-opacity:1;fill-rule:nonzero;stroke:none"
         id="path1245" />
    </g>
    <g
       id="g1247"
       transform="matrix(2.9682826,0,0,-3.0414769,176.20251,82.041439)">
      <path
         d="M 0,0 V 6.252 H -6.865 V 0 c -2.946,-1.189 -5.133,-3.855 -5.636,-7.086 H 5.636 C 5.134,-3.855 2.944,-1.189 0,0"
         style="fill:#000000;fill-opacity:1;fill-rule:nonzero;stroke:none"
         id="path1249" />
    </g>
    <g
       id="g1251"
       transform="matrix(2.9682826,0,0,-3.0414769,117.46285,82.041439)">
      <path
         d="M 0,0 V 6.252 H -6.866 V 0 C -9.812,-1.189 -12,-3.855 -12.502,-7.086 H 5.636 C 5.132,-3.855 2.943,-1.189 0,0"
         style="fill:#000000;fill-opacity:1;fill-rule:nonzero;stroke:none"
         id="path1253" />
    </g>
    <g
       id="g1255"
       transform="matrix(2.9682826,0,0,-3.0414769,56.349171,23.546214)">
      <path
         d="M 0,0 H -5.048 C -5.549,0 -5.957,-0.406 -5.957,-0.907 V -11.389 H 0.91 V -0.907 C 0.91,-0.406 0.503,0 0,0"
         style="fill:#000000;fill-opacity:1;fill-rule:nonzero;stroke:none"
         id="path1257" />
    </g>
    <g
       id="g1259"
       transform="matrix(2.9682826,0,0,-3.0414769,173.66011,23.546214)">
      <path
         d="m 0,0 h -5.046 c -0.502,0 -0.91,-0.406 -0.91,-0.907 V -11.389 H 0.91 V -0.907 C 0.91,-0.406 0.503,0 0,0"
         style="fill:#000000;fill-opacity:1;fill-rule:nonzero;stroke:none"
         id="path1261" />
    </g>
    <g
       id="g1263"
       transform="matrix(2.9682826,0,0,-3.0414769,114.81334,23.546214)">
      <path
         d="m 0,0 h -5.046 c -0.504,0 -0.91,-0.406 -0.91,-0.907 V -11.389 H 0.91 V -0.907 C 0.91,-0.406 0.503,0 0,0"
         style="fill:#000000;fill-opacity:1;fill-rule:nonzero;stroke:none"
         id="path1265" />
    </g>
    <g
       id="g1267"
       transform="matrix(2.9682826,0,0,-3.0414769,183.67517,113.04412)">
      <path
         d="m 0,0 c -0.925,0 -1.379,-0.234 -1.859,-0.482 -0.516,-0.266 -1.049,-0.545 -2.107,-0.545 -1.058,0 -1.592,0.279 -2.108,0.545 C -6.554,-0.234 -7.006,0 -7.933,0 c -0.925,0 -1.378,-0.234 -1.858,-0.482 -0.517,-0.266 -1.049,-0.545 -2.107,-0.545 -1.057,0 -1.591,0.279 -2.107,0.545 -0.305,0.157 -0.599,0.308 -1.009,0.399 v -3.481 c 0.535,-0.102 0.903,-0.287 1.257,-0.47 0.48,-0.247 0.934,-0.483 1.859,-0.483 0.924,0 1.378,0.236 1.859,0.483 0.517,0.268 1.05,0.545 2.106,0.545 1.058,0 1.592,-0.277 2.109,-0.545 0.48,-0.247 0.932,-0.483 1.858,-0.483 0.925,0 1.379,0.236 1.86,0.483 0.515,0.268 1.049,0.545 2.106,0.545 1.059,0 1.592,-0.277 2.109,-0.545 0.305,-0.157 0.599,-0.308 1.011,-0.4 v 3.483 C 2.583,-0.852 2.215,-0.666 1.859,-0.482 1.38,-0.234 0.926,0 0,0"
         style="fill:#000000;fill-opacity:1;fill-rule:nonzero;stroke:none"
         id="path1269" />
    </g>
    <g
       id="g1271"
       transform="matrix(2.9682826,0,0,-3.0414769,34.864149,128.56929)">
      <path
         d="M 0,0 2.317,2.746 4.633,0 6.949,2.746 9.266,0 11.583,2.746 13.73,0.202 V 2.827 L 11.583,5.37 9.266,2.625 6.949,5.37 4.633,2.625 2.317,5.37 -0.001,2.625 -2.316,5.37 -4.458,2.833 V 0.208 l 2.142,2.538 z"
         style="fill:#000000;fill-opacity:1;fill-rule:nonzero;stroke:none"
         id="path1273" />
    </g>
    <g
       id="g1275"
       transform="matrix(2.9682826,0,0,-3.0414769,183.64631,219.47813)">
      <path
         d="m 0,0 c -0.926,0 -1.379,-0.234 -1.858,-0.484 -0.516,-0.267 -1.05,-0.543 -2.107,-0.543 -1.056,0 -1.59,0.276 -2.105,0.543 C -6.549,-0.234 -7.003,0 -7.927,0 c -0.925,0 -1.378,-0.234 -1.858,-0.484 -0.515,-0.267 -1.049,-0.543 -2.106,-0.543 -1.057,0 -1.589,0.276 -2.105,0.543 -0.304,0.159 -0.598,0.308 -1.008,0.401 v -3.481 c 0.534,-0.102 0.902,-0.287 1.255,-0.47 0.48,-0.248 0.935,-0.483 1.858,-0.483 0.924,0 1.378,0.235 1.857,0.483 0.516,0.268 1.051,0.544 2.107,0.544 1.056,0 1.59,-0.276 2.105,-0.544 0.48,-0.248 0.932,-0.483 1.857,-0.483 0.926,0 1.379,0.235 1.858,0.483 0.516,0.268 1.049,0.544 2.107,0.544 1.056,0 1.59,-0.276 2.105,-0.544 0.305,-0.157 0.6,-0.308 1.01,-0.4 v 3.483 C 2.579,-0.854 2.213,-0.666 1.857,-0.484 1.378,-0.234 0.925,0 0,0"
         style="fill:#000000;fill-opacity:1;fill-rule:nonzero;stroke:none"
         id="path1277" />
    </g>
    <g
       id="g1287"
       transform="matrix(2.9682826,0,0,-3.0414769,31.947812,171.61625)">
      <path
         d="M 0,0 V 0.127 C 0.165,0.254 0.305,0.559 0.076,1.154 L -2.712,7.35 C -2.991,7.973 -3.231,8.428 -3.536,8.744 V 8.871 H 0.887 V 8.744 C 0.431,8.441 0.102,7.628 0.469,6.604 L 1.75,3.028 3.13,6.604 C 3.523,7.617 3.193,8.441 2.711,8.744 V 8.871 H 6.818 V 8.744 C 6.438,8.314 6.211,7.808 5.83,6.996 L 3.144,1.24 C 2.864,0.582 3.004,0.265 3.182,0.127 V 0 Z"
         style="fill:#000000;fill-opacity:1;fill-rule:nonzero;stroke:none"
         id="path1289" />
    </g>
    <g
       id="g1291"
       transform="matrix(2.9682826,0,0,-3.0414769,51.247595,171.61625)">
      <path
         d="M 0,0 V 0.127 C 0.595,0.381 0.874,0.822 0.874,1.672 V 7.199 C 0.874,8.048 0.595,8.492 0,8.744 V 8.871 H 4.283 V 8.744 C 3.688,8.492 3.408,8.048 3.408,7.199 V 1.672 c 0,-0.85 0.28,-1.291 0.875,-1.545 L 4.283,0 Z"
         style="fill:#000000;fill-opacity:1;fill-rule:nonzero;stroke:none"
         id="path1293" />
    </g>
    <g
       id="g1295"
       transform="matrix(2.9682826,0,0,-3.0414769,82.695658,171.61625)">
      <path
         d="m 0,0 v 0.127 c 0.493,0.164 0.874,0.533 0.874,1.038 0,1.103 -1.153,2.472 -3.523,4.589 V 1.672 c 0,-0.85 0.279,-1.291 0.874,-1.545 V 0 h -4.284 v 0.127 c 0.596,0.254 0.875,0.695 0.875,1.545 v 5.527 c 0,0.849 -0.279,1.293 -0.875,1.545 V 8.871 L -2.649,8.859 0.874,5.233 V 7.199 C 0.874,8.048 0.596,8.492 0,8.744 V 8.871 H 4.282 V 8.744 C 3.687,8.492 3.409,8.048 3.409,7.199 V 1.672 c 0,-0.85 0.278,-1.291 0.873,-1.545 V 0 Z"
         style="fill:#000000;fill-opacity:1;fill-rule:nonzero;stroke:none"
         id="path1297" />
    </g>
    <g
       id="g1299"
       transform="matrix(2.9682826,0,0,-3.0414769,118.32099,158.16747)">
      <path
         d="M 0,0 C 0,1.66 -1.052,2.625 -2.409,2.625 -3.752,2.625 -4.804,1.66 -4.804,0 c 0,-1.646 1.052,-2.609 2.395,-2.609 C -1.052,-2.609 0,-1.646 0,0 m -2.409,-4.638 c -2.585,0 -4.929,1.724 -4.929,4.638 0,3.043 2.344,4.652 4.929,4.652 2.598,0 4.943,-1.609 4.943,-4.652 0,-2.914 -2.345,-4.638 -4.943,-4.638"
         style="fill:#000000;fill-opacity:1;fill-rule:nonzero;stroke:none"
         id="path1301" />
    </g>
    <g
       id="g1303"
       transform="matrix(2.9682826,0,0,-3.0414769,148.30242,165.45023)">
      <path
         d="m 0,0 c 1.571,0 2.369,0.963 2.369,2.433 0,1.585 -0.912,2.383 -2.243,2.383 H -1.243 V 0 Z M -4.652,-2.027 V -1.9 c 0.571,0.24 0.875,0.785 0.888,1.545 v 5.527 c 0,0.988 -0.444,1.393 -0.888,1.545 v 0.127 h 4.741 c 2.598,0 4.815,-1.356 4.815,-4.411 0,-2.902 -2.091,-4.46 -4.815,-4.46 z"
         style="fill:#000000;fill-opacity:1;fill-rule:nonzero;stroke:none"
         id="path1305" />
    </g>
    <g
       id="g1307"
       transform="matrix(2.9682826,0,0,-3.0414769,163.9871,171.61625)">
      <path
         d="M 0,0 V 0.127 C 0.557,0.305 0.874,0.85 0.874,1.672 V 7.186 C 0.874,8.035 0.596,8.543 0,8.744 v 0.127 h 6.045 c 1.267,0 1.547,0.178 1.547,0.178 L 8.136,6.425 8.021,6.387 C 7.769,6.59 7.362,6.844 6.426,6.844 H 3.409 V 4.893 c 0.291,0.581 0.963,0.988 1.85,0.988 1.178,0 1.977,-0.635 1.977,-1.548 0,-0.761 -0.645,-1.151 -1.292,-1.151 0,0.355 -0.266,0.709 -0.913,0.709 -0.862,0 -1.622,-0.747 -1.622,-1.864 h 3.143 c 0.875,0 1.344,0.343 1.711,0.672 L 8.364,2.65 7.845,-0.254 C 7.845,-0.254 7.452,0 6.172,0 Z"
         style="fill:#000000;fill-opacity:1;fill-rule:nonzero;stroke:none"
         id="path1309" />
    </g>
    <g
       id="g1311"
       transform="matrix(2.9682826,0,0,-3.0414769,47.221111,185.8139)">
      <path
         d="m 0,0 c -0.723,0.672 -1.659,1.154 -2.978,1.154 -1.647,0 -2.662,-0.951 -2.662,-2.537 0,-1.443 0.925,-2.647 2.649,-2.647 1.597,0 2.257,0.975 2.257,2.027 0.646,0 1.318,-0.431 1.318,-1.306 0,-1.381 -1.18,-2.787 -3.855,-2.787 -2.901,0 -4.904,2.129 -4.904,4.727 0,2.89 2.37,4.551 5.133,4.551 1.116,0 1.901,-0.343 2.345,-0.343 0.303,0 0.519,0.075 0.646,0.165 L 0.151,0.026 Z"
         style="fill:#000000;fill-opacity:1;fill-rule:nonzero;stroke:none"
         id="path1313" />
    </g>
    <g
       id="g1315"
       transform="matrix(2.9682826,0,0,-3.0414769,63.320787,182.96251)">
      <path
         d="m 0,0 h -0.202 l -0.963,-2.992 h 2.116 z m 0.938,-6.831 v 0.127 c 0.481,0.202 0.899,0.913 0.583,1.963 h -3.245 c -0.316,-1.05 0.102,-1.761 0.583,-1.963 v -0.127 h -4.081 v 0.127 c 0.292,0.216 0.482,0.52 0.825,1.367 0.392,0.978 1.418,4.235 1.761,5.286 0.457,1.381 -0.05,1.863 -0.431,1.965 V 2.041 H 3.118 V 1.914 C 2.737,1.812 2.23,1.33 2.688,-0.051 3.029,-1.102 4.157,-4.55 4.448,-5.337 4.778,-6.223 5.082,-6.553 5.272,-6.704 v -0.127 z"
         style="fill:#000000;fill-opacity:1;fill-rule:nonzero;stroke:none"
         id="path1317" />
    </g>
    <g
       id="g1319"
       transform="matrix(2.9682826,0,0,-3.0414769,96.574736,203.73912)">
      <path
         d="m 0,0 v 0.127 c 0.495,0.165 0.875,0.533 0.875,1.038 0,1.104 -1.153,2.473 -3.522,4.588 V 1.672 c 0,-0.847 0.278,-1.292 0.874,-1.545 V 0 h -4.285 v 0.127 c 0.596,0.253 0.875,0.698 0.875,1.545 v 5.526 c 0,0.85 -0.279,1.293 -0.875,1.547 V 8.872 L -2.647,8.857 0.875,5.235 V 7.198 C 0.875,8.048 0.596,8.491 0,8.745 V 8.872 H 4.284 V 8.745 C 3.688,8.491 3.409,8.048 3.409,7.198 V 1.672 C 3.409,0.825 3.688,0.38 4.284,0.127 V 0 Z"
         style="fill:#000000;fill-opacity:1;fill-rule:nonzero;stroke:none"
         id="path1321" />
    </g>
    <g
       id="g1323"
       transform="matrix(2.9682826,0,0,-3.0414769,130.50696,181.8843)">
      <path
         d="M 0,0 C 0,0.913 -0.329,1.356 -0.849,1.56 V 1.687 H 3.447 V 1.56 C 2.992,1.369 2.561,0.951 2.561,0 V -3.421 C 2.51,-5.982 0.684,-7.388 -1.774,-7.388 c -2.447,0 -4.258,1.395 -4.258,3.967 V 0 c 0,0.862 -0.367,1.343 -0.862,1.56 v 0.127 h 4.296 V 1.571 C -3.144,1.382 -3.498,0.913 -3.498,0 v -3.435 c 0,-1.089 0.52,-1.925 1.724,-1.925 1.192,0 1.774,0.836 1.774,1.925 z"
         style="fill:#000000;fill-opacity:1;fill-rule:nonzero;stroke:none"
         id="path1325" />
    </g>
    <g
       id="g1327"
       transform="matrix(2.9682826,0,0,-3.0414769,146.04115,203.73912)">
      <path
         d="M 0,0 V 0.127 C 0.597,0.38 0.876,0.825 0.876,1.672 V 6.843 H 0.33 c -1,0 -1.42,-0.075 -1.889,-0.443 l -0.1,0.05 0.482,2.574 c 0,0 0.493,-0.152 1.317,-0.152 h 4.006 c 0.824,0 1.318,0.152 1.318,0.152 L 5.943,6.45 5.844,6.4 C 5.375,6.768 4.956,6.843 3.955,6.843 H 3.409 V 1.672 c 0,-0.847 0.28,-1.292 0.876,-1.545 V 0 Z"
         style="fill:#000000;fill-opacity:1;fill-rule:nonzero;stroke:none"
         id="path1329" />
    </g>
    <g
       id="g1331"
       transform="matrix(2.9682826,0,0,-3.0414769,185.27829,190.28697)">
      <path
         d="M 0,0 C 0,1.66 -1.051,2.625 -2.407,2.625 -3.751,2.625 -4.803,1.66 -4.803,0 c 0,-1.648 1.052,-2.611 2.396,-2.611 C -1.051,-2.611 0,-1.648 0,0 m -2.407,-4.639 c -2.585,0 -4.931,1.723 -4.931,4.639 0,3.041 2.346,4.652 4.931,4.652 2.597,0 4.943,-1.611 4.943,-4.652 0,-2.916 -2.346,-4.639 -4.943,-4.639"
         style="fill:#000000;fill-opacity:1;fill-rule:nonzero;stroke:none"
         id="path1333" />
    </g>
    <g
       id="g1335"
       transform="matrix(2.9682826,0,0,-3.0414769,134.29568,113.04412)">
      <path
         d="M 0,0 H -1.236 V -6.875 H -2.995 V 0 H -5.472 V -6.875 H -7.803 V 0 h -2.475 v -6.875 h -2.424 V 0 h -2.475 v -6.875 h -1.758 V 0 h -1.238 v -6.875 -1.209 -0.002 h 18.111 v 0.002 H 0 Z"
         style="fill:#000000;fill-opacity:1;fill-rule:nonzero;stroke:none"
         id="path1337" />
    </g>
    <path
       d="M 192.92967,137.63628 H 139.10875 V 133.953 h 53.82092 z"
       style="fill:#000000;fill-opacity:1;fill-rule:nonzero;stroke:none;stroke-width:3.00465"
       id="path1339" />
    <path
       d="M 75.676559,137.63628 H 21.736925 V 133.953 h 53.939634 z"
       style="fill:#000000;fill-opacity:1;fill-rule:nonzero;stroke:none;stroke-width:3.00465"
       id="path1341" />
    <g
       id="g1343"
       transform="matrix(2.9682826,0,0,-3.0414769,134.11016,210.31786)">
      <path
         d="m 0,0 h -1.174 -1.759 -2.476 -2.331 -2.476 -2.424 -2.474 -1.758 -1.238 v -1.211 -6.744 h 1.238 v 6.744 h 1.758 v -6.744 h 2.474 v 6.744 h 2.424 v -6.744 h 2.476 v 6.744 h 2.331 v -6.744 h 2.476 v 6.744 h 1.759 V -7.955 H 0.062 V 0 Z"
         style="fill:#000000;fill-opacity:1;fill-rule:nonzero;stroke:none"
         id="path1345" />
    </g>
    <path
       d="m 192.89402,214.00779 h -53.75558 v -3.68933 h 53.75558 z"
       style="fill:#000000;fill-opacity:1;fill-rule:nonzero;stroke:none;stroke-width:3.00465"
       id="path1347" />
    <path
       d="M 75.56969,214.00166 H 21.630066 v -3.6832 H 75.56969 Z"
       style="fill:#000000;fill-opacity:1;fill-rule:nonzero;stroke:none;stroke-width:3.00465"
       id="path1349" />
  </g>
</svg>
