<?xml version="1.0" encoding="UTF-8" standalone="no"?>
<!-- Created with Inkscape (http://www.inkscape.org/) -->

<svg
   width="210mm"
   height="297mm"
   viewBox="0 0 210 297"
   version="1.1"
   id="svg2528"
   inkscape:version="1.2.2 (732a01da63, 2022-12-09)"
   sodipodi:docname="corcho canuto.svg"
   xmlns:inkscape="http://www.inkscape.org/namespaces/inkscape"
   xmlns:sodipodi="http://sodipodi.sourceforge.net/DTD/sodipodi-0.dtd"
   xmlns="http://www.w3.org/2000/svg"
   xmlns:svg="http://www.w3.org/2000/svg">
  <sodipodi:namedview
     id="namedview2530"
     pagecolor="#ffffff"
     bordercolor="#000000"
     borderopacity="0.25"
     inkscape:showpageshadow="2"
     inkscape:pageopacity="0.0"
     inkscape:pagecheckerboard="0"
     inkscape:deskcolor="#d1d1d1"
     inkscape:document-units="mm"
     showgrid="false"
     inkscape:zoom="0.4665165"
     inkscape:cx="282.94819"
     inkscape:cy="439.42712"
     inkscape:window-width="1920"
     inkscape:window-height="1017"
     inkscape:window-x="-8"
     inkscape:window-y="-8"
     inkscape:window-maximized="1"
     inkscape:current-layer="layer1" />
  <defs
     id="defs2525" />
  <g
     inkscape:label="Capa 1"
     inkscape:groupmode="layer"
     id="layer1">
    <g
       id="g841"
       transform="matrix(6.0793707,0,0,-4.8127351,160.27296,207.90345)">
      <path
         d="m 0,0 0.099,-0.043 c 0.029,-0.01 0.059,-0.019 0.089,-0.025 0.043,-0.01 0.085,-0.016 0.129,-0.016 0.681,0 1.231,1.104 1.231,2.465 0,1.359 -0.55,2.462 -1.231,2.462 C 0.273,4.843 0.231,4.839 0.188,4.83 -0.432,4.699 -0.911,3.652 -0.911,2.381 -0.911,1.24 -0.524,0.281 0,0"
         style="fill:#000000;fill-opacity:1;fill-rule:nonzero;stroke:none"
         id="path843" />
    </g>
    <g
       id="g845"
       transform="matrix(6.0793707,0,0,-4.8127351,45.269508,208.30776)">
      <path
         d="m 0,0 c 0.043,0 0.087,0.006 0.129,0.016 0.03,0.005 0.061,0.015 0.09,0.025 l 0.1,0.043 c 0.523,0.281 0.909,1.24 0.909,2.381 0,1.271 -0.481,2.318 -1.099,2.449 C 0.087,4.923 0.043,4.927 0,4.927 -0.68,4.927 -1.23,3.824 -1.23,2.465 -1.23,1.104 -0.68,0 0,0"
         style="fill:#000000;fill-opacity:1;fill-rule:nonzero;stroke:none"
         id="path847" />
    </g>
    <g
       id="g849"
       transform="matrix(6.0793707,0,0,-4.8127351,135.97311,200.51972)">
      <path
         d="M 0,0 -1.323,0.638 -2.647,0 -3.971,0.638 -5.294,0 -6.618,0.638 -7.941,0 -9.265,0.638 -10.588,0 -11.911,0.638 -13.086,0.071 c -0.099,-0.672 -0.337,-1.224 -0.646,-1.523 -0.027,-0.026 0.017,-0.061 0.054,-0.038 0.035,0.02 1.885,0.839 2.163,0.963 l 5.175,-0.911 c 0.136,-0.436 0.54,-0.752 1.018,-0.752 0.478,0 0.883,0.317 1.018,0.755 l 5.161,0.908 C 1.136,-0.651 2.984,-1.47 3.02,-1.49 3.057,-1.513 3.104,-1.478 3.075,-1.452 2.759,-1.147 2.519,-0.581 2.423,0.107 L 1.321,0.638 Z"
         style="fill:#000000;fill-opacity:1;fill-rule:nonzero;stroke:none"
         id="path851" />
    </g>
    <g
       id="g853"
       transform="matrix(6.0793707,0,0,-4.8127351,56.727917,196.82117)">
      <path
         d="m 0,0 c 0,-0.068 -0.002,-0.137 -0.005,-0.203 l 1.129,0.545 1.323,-0.64 1.324,0.64 1.323,-0.64 1.323,0.64 1.324,-0.64 1.323,0.64 1.324,-0.64 1.324,0.64 1.323,-0.64 1.321,0.64 1.06,-0.512 c -0.002,0.057 -0.003,0.113 -0.003,0.17 0,1.172 0.408,2.152 0.955,2.402 0.01,0.021 -0.012,0.02 -0.012,0.02 L 13.907,1.549 V 1.551 L 9.105,2.484 V 3.266 H 8.51 L 8.458,3.254 V 16.662 H 8.456 C 8.454,17.154 8.01,17.361 7.715,17.5 c -0.069,0.032 -0.169,0.078 -0.236,0.119 0.067,0.041 0.167,0.086 0.236,0.118 0.296,0.14 0.743,0.349 0.743,0.844 0,0.493 -0.447,0.702 -0.743,0.842 -0.069,0.031 -0.167,0.077 -0.236,0.119 0.069,0.04 0.167,0.086 0.236,0.117 0.296,0.14 0.743,0.349 0.743,0.843 0,0.494 -0.447,0.704 -0.743,0.842 -0.069,0.033 -0.169,0.079 -0.236,0.119 0.067,0.041 0.167,0.088 0.236,0.119 0.296,0.139 0.743,0.348 0.743,0.842 0,0.496 -0.447,0.705 -0.743,0.844 -0.069,0.031 -0.169,0.078 -0.236,0.117 0.067,0.041 0.167,0.088 0.236,0.119 0.296,0.139 0.743,0.349 0.743,0.844 L 8.067,25.307 7.658,24.375 C 7.6,24.33 7.467,24.268 7.383,24.227 7.087,24.09 6.64,23.881 6.64,23.385 6.64,22.892 7.087,22.682 7.383,22.543 7.449,22.512 7.549,22.466 7.616,22.424 7.549,22.385 7.449,22.338 7.383,22.307 7.087,22.167 6.64,21.958 6.64,21.463 6.64,20.969 7.087,20.76 7.383,20.62 7.449,20.589 7.549,20.543 7.616,20.502 7.549,20.461 7.449,20.416 7.383,20.383 7.087,20.246 6.64,20.037 6.64,19.542 6.64,19.047 7.087,18.838 7.383,18.698 7.449,18.667 7.549,18.621 7.616,18.581 7.549,18.539 7.449,18.493 7.383,18.461 7.087,18.324 6.64,18.113 6.64,17.619 c 0,-0.494 0.447,-0.705 0.743,-0.842 0.064,-0.031 0.159,-0.076 0.226,-0.115 H 6.922 V 3.264 L 6.91,3.266 H 6.314 V 2.485 L 1.506,1.551 V 1.549 l -2.451,0.873 c 0,0 -0.022,10e-4 -0.011,-0.02 C -0.408,2.152 0,1.172 0,0"
         style="fill:#000000;fill-opacity:1;fill-rule:nonzero;stroke:none"
         id="path855" />
    </g>
  </g>
</svg>
