<?xml version="1.0" encoding="UTF-8" standalone="no"?>
<!-- Created with Inkscape (http://www.inkscape.org/) -->

<svg
   width="210mm"
   height="297mm"
   viewBox="0 0 210 297"
   version="1.1"
   id="svg1834"
   inkscape:version="1.2.2 (732a01da63, 2022-12-09)"
   sodipodi:docname="sello2.svg"
   xmlns:inkscape="http://www.inkscape.org/namespaces/inkscape"
   xmlns:sodipodi="http://sodipodi.sourceforge.net/DTD/sodipodi-0.dtd"
   xmlns="http://www.w3.org/2000/svg"
   xmlns:svg="http://www.w3.org/2000/svg">
  <sodipodi:namedview
     id="namedview1836"
     pagecolor="#ffffff"
     bordercolor="#000000"
     borderopacity="0.25"
     inkscape:showpageshadow="2"
     inkscape:pageopacity="0.0"
     inkscape:pagecheckerboard="0"
     inkscape:deskcolor="#d1d1d1"
     inkscape:document-units="mm"
     showgrid="false"
     inkscape:zoom="0.74564394"
     inkscape:cx="396.97231"
     inkscape:cy="561.9304"
     inkscape:window-width="1920"
     inkscape:window-height="1017"
     inkscape:window-x="-8"
     inkscape:window-y="-8"
     inkscape:window-maximized="1"
     inkscape:current-layer="layer1" />
  <defs
     id="defs1831" />
  <g
     inkscape:label="Capa 1"
     inkscape:groupmode="layer"
     id="layer1">
    <g
       id="g461"
       transform="matrix(0.35277777,0,0,-0.35277777,169.72354,202.74218)">
      <path
         d="m 0,0 c 2.035,3.789 3.955,7.369 3.955,14.668 0,7.301 -1.92,10.881 -3.955,14.666 -2.178,4.066 -4.437,8.277 -4.437,16.619 0,8.338 2.259,12.545 4.437,16.619 2.035,3.783 3.955,7.356 3.955,14.655 0,7.306 -1.92,10.878 -3.955,14.662 -2.178,4.06 -4.437,8.281 -4.437,16.619 0,8.347 2.259,12.545 4.437,16.619 1.289,2.4 2.523,4.725 3.27,7.957 -0.747,3.23 -1.981,5.549 -3.27,7.951 -2.178,4.069 -4.437,8.276 -4.437,16.617 0,8.338 2.259,12.555 4.437,16.619 2.035,3.79 3.955,7.36 3.955,14.663 0,7.302 -1.92,10.875 -3.955,14.656 -2.178,4.068 -4.437,8.279 -4.437,16.621 0,8.339 2.259,12.55 4.437,16.619 2.035,3.785 3.955,7.365 3.955,14.668 0,7.297 -1.92,10.874 -3.955,14.663 -1.494,2.802 -3.008,5.702 -3.83,9.934 0.822,4.232 2.336,7.131 3.83,9.934 2.035,3.785 3.955,7.365 3.955,14.668 0,7.302 -1.92,10.878 -3.955,14.658 -1.707,3.196 -3.461,6.484 -4.141,11.777 -9.17,0.013 -18.705,0.03 -28.505,0.059 0.63,-4.291 2.101,-7.023 3.625,-9.872 2.183,-4.077 4.443,-8.284 4.443,-16.622 0,-8.347 -2.26,-12.554 -4.443,-16.627 -1.288,-2.406 -2.528,-4.734 -3.264,-7.975 0.736,-3.246 1.976,-5.569 3.264,-7.97 2.183,-4.079 4.443,-8.29 4.443,-16.627 0,-8.343 -2.26,-12.554 -4.443,-16.627 -2.024,-3.786 -3.954,-7.362 -3.954,-14.66 0,-7.301 1.93,-10.869 3.954,-14.658 2.183,-4.069 4.443,-8.28 4.443,-16.619 0,-8.334 -2.26,-12.549 -4.443,-16.622 -2.024,-3.785 -3.954,-7.361 -3.954,-14.66 0,-7.298 1.93,-10.873 3.954,-14.658 1.5,-2.795 3.015,-5.685 3.834,-9.91 -0.819,-4.227 -2.334,-7.127 -3.834,-9.912 -2.024,-3.789 -3.954,-7.369 -3.954,-14.664 0,-7.295 1.93,-10.875 3.954,-14.658 2.183,-4.075 4.443,-8.286 4.443,-16.623 0,-8.338 -2.26,-12.545 -4.443,-16.616 -2.024,-3.789 -3.954,-7.355 -3.954,-14.658 0,-7.303 1.93,-10.879 3.954,-14.664 2.183,-4.076 4.443,-8.279 4.443,-16.621 0,-8.348 -2.26,-12.555 -4.443,-16.623 -0.844,-1.58 -1.666,-3.129 -2.34,-4.922 9.742,0.029 19.216,0.047 28.322,0.055 C -2.201,-4.17 -1.098,-2.055 0,0"
         style="fill:#1f120d;fill-opacity:1;fill-rule:nonzero;stroke:none"
         id="path463" />
    </g>
    <g
       id="g465"
       transform="matrix(0.35277777,0,0,-0.35277777,45.308725,202.74355)">
      <path
         d="m 0,0 c -2.035,3.789 -3.955,7.369 -3.955,14.666 0,7.303 1.92,10.883 3.955,14.668 2.178,4.064 4.437,8.275 4.437,16.619 0,8.338 -2.259,12.549 -4.437,16.617 -2.035,3.785 -3.955,7.358 -3.955,14.657 0,7.306 1.92,10.877 3.955,14.666 2.178,4.06 4.437,8.277 4.437,16.619 0,8.342 -2.259,12.545 -4.437,16.613 -1.289,2.402 -2.523,4.73 -3.27,7.959 0.747,3.234 1.981,5.553 3.27,7.955 2.178,4.068 4.437,8.272 4.437,16.613 0,8.342 -2.259,12.553 -4.437,16.619 -2.035,3.793 -3.955,7.36 -3.955,14.666 0,7.299 1.92,10.872 3.955,14.657 2.178,4.068 4.437,8.279 4.437,16.617 0,8.343 -2.259,12.554 -4.437,16.622 -2.035,3.786 -3.955,7.362 -3.955,14.665 0,7.297 1.92,10.877 3.955,14.663 1.496,2.802 3.008,5.702 3.832,9.933 -0.824,4.237 -2.336,7.132 -3.832,9.935 -2.035,3.789 -3.955,7.365 -3.955,14.667 0,7.303 1.92,10.879 3.955,14.663 1.707,3.192 3.461,6.48 4.141,11.777 9.17,0.008 18.705,0.025 28.505,0.054 -0.63,-4.29 -2.101,-7.023 -3.625,-9.867 -2.183,-4.077 -4.443,-8.288 -4.443,-16.627 0,-8.342 2.26,-12.554 4.443,-16.626 1.288,-2.406 2.528,-4.73 3.264,-7.976 -0.736,-3.241 -1.976,-5.564 -3.264,-7.97 -2.183,-4.074 -4.443,-8.285 -4.443,-16.626 0,-8.339 2.26,-12.55 4.443,-16.623 2.024,-3.786 3.954,-7.366 3.954,-14.664 0,-7.302 -1.93,-10.869 -3.954,-14.658 -2.183,-4.071 -4.443,-8.282 -4.443,-16.616 0,-8.337 2.26,-12.552 4.443,-16.626 2.024,-3.784 3.954,-7.36 3.954,-14.659 0,-7.295 -1.93,-10.875 -3.954,-14.658 -1.5,-2.791 -3.015,-5.685 -3.834,-9.91 0.819,-4.229 2.334,-7.123 3.834,-9.908 2.024,-3.789 3.954,-7.369 3.954,-14.664 0,-7.299 -1.93,-10.879 -3.954,-14.664 -2.183,-4.073 -4.443,-8.284 -4.443,-16.621 0,-8.34 2.26,-12.541 4.443,-16.616 2.024,-3.789 3.954,-7.355 3.954,-14.658 0,-7.303 -1.93,-10.879 -3.954,-14.66 -2.183,-4.08 -4.443,-8.283 -4.443,-16.627 0,-8.342 2.26,-12.549 4.443,-16.621 0.846,-1.58 1.666,-3.129 2.34,-4.918 C 21.621,-6.848 12.145,-6.83 3.039,-6.818 2.201,-4.166 1.098,-2.057 0,0"
         style="fill:#1f120d;fill-opacity:1;fill-rule:nonzero;stroke:none"
         id="path467" />
    </g>
    <g
       id="g469"
       transform="matrix(0.35277777,0,0,-0.35277777,125.29177,73.951933)">
      <path
         d="m 0,0 c -7.844,0 -11.695,-1.974 -15.75,-4.064 -4.375,-2.23 -8.893,-4.546 -17.855,-4.546 -8.958,0 -13.477,2.316 -17.852,4.546 -4.064,2.09 -7.904,4.064 -15.74,4.064 -7.844,0 -11.684,-1.974 -15.75,-4.064 -4.366,-2.23 -8.893,-4.546 -17.856,-4.546 -8.961,0 -13.468,2.316 -17.836,4.546 -2.588,1.326 -5.082,2.589 -8.554,3.356 v -29.193 c 4.537,-0.839 7.646,-2.385 10.65,-3.929 4.064,-2.087 7.91,-4.054 15.74,-4.054 7.842,0 11.69,1.967 15.748,4.054 4.375,2.235 8.901,4.556 17.858,4.556 8.957,0 13.474,-2.321 17.842,-4.556 4.074,-2.087 7.906,-4.054 15.75,-4.054 7.847,0 11.681,1.967 15.748,4.054 4.367,2.235 8.892,4.556 17.857,4.556 8.947,0 13.48,-2.321 17.861,-4.556 2.569,-1.312 5.075,-2.596 8.559,-3.351 V -7.985 C 21.871,-7.146 18.77,-5.596 15.748,-4.064 11.682,-1.974 7.848,0 0,0"
         style="fill:#1f120d;fill-opacity:1;fill-rule:nonzero;stroke:none"
         id="path471" />
    </g>
    <g
       id="g473"
       transform="matrix(0.35277777,0,0,-0.35277777,125.29177,199.39629)">
      <path
         d="m 0,0 c -7.844,0 -11.695,-1.98 -15.75,-4.059 -4.375,-2.228 -8.893,-4.545 -17.855,-4.545 -8.958,0 -13.477,2.317 -17.852,4.545 C -55.521,-1.98 -59.361,0 -67.197,0 c -7.844,0 -11.684,-1.98 -15.75,-4.059 -4.366,-2.228 -8.893,-4.545 -17.856,-4.545 -8.961,0 -13.468,2.317 -17.836,4.545 -2.588,1.319 -5.082,2.584 -8.554,3.358 v -29.195 c 4.537,-0.84 7.646,-2.395 10.65,-3.928 4.064,-2.08 7.91,-4.051 15.74,-4.051 7.842,0 11.69,1.971 15.748,4.051 4.375,2.24 8.901,4.558 17.858,4.558 8.957,0 13.474,-2.318 17.842,-4.558 4.074,-2.08 7.906,-4.051 15.75,-4.051 7.847,0 11.681,1.971 15.748,4.051 4.367,2.24 8.892,4.558 17.857,4.558 8.947,0 13.48,-2.318 17.861,-4.558 2.569,-1.324 5.075,-2.596 8.559,-3.356 V -7.986 C 21.871,-7.145 18.77,-5.584 15.748,-4.059 11.682,-1.98 7.848,0 0,0"
         style="fill:#1f120d;fill-opacity:1;fill-rule:nonzero;stroke:none"
         id="path475" />
    </g>
    <g
       id="g477"
       transform="matrix(0.35277777,0,0,-0.35277777,99.077384,140.33839)">
      <path
         d="m 0,0 v 1.816 c 2.395,1.827 4.43,6.209 1.111,14.801 l -40.64,89.348 c -4.061,8.952 -7.573,15.527 -12.002,20.097 v 1.823 h 64.465 v -1.823 C 6.281,121.679 1.477,109.974 6.834,95.188 L 25.496,43.656 45.625,95.188 c 5.732,14.61 0.918,26.491 -6.1,30.874 v 1.823 h 59.858 v -1.823 C 93.836,119.841 90.514,112.545 84.969,100.848 L 45.813,17.895 C 41.742,8.4 43.781,3.834 46.365,1.816 V 0 Z"
         style="fill:#1f120d;fill-opacity:1;fill-rule:nonzero;stroke:none"
         id="path479" />
    </g>
    <g
       id="g481"
       transform="matrix(0.35277777,0,0,-0.35277777,127.03019,163.09877)">
      <path
         d="m 0,0 c -10.518,9.688 -24.189,16.621 -43.398,16.621 -24.014,0 -38.797,-13.709 -38.797,-36.539 0,-20.838 13.488,-38.189 38.613,-38.189 23.277,0 32.881,14.07 32.881,29.238 9.424,0 19.209,-6.215 19.209,-18.826 0,-19.914 -17.168,-40.19 -56.156,-40.19 -42.297,0 -71.483,30.694 -71.483,68.141 0,41.664 34.535,65.605 74.807,65.605 16.263,0 27.701,-4.939 34.172,-4.939 4.435,0 7.57,1.098 9.422,2.377 L 2.215,0.361 Z"
         style="fill:#1f120d;fill-opacity:1;fill-rule:nonzero;stroke:none"
         id="path483" />
    </g>
  </g>
</svg>
