<?xml version="1.0" encoding="UTF-8" standalone="no"?>
<!-- Created with Inkscape (http://www.inkscape.org/) -->

<svg
   width="210mm"
   height="297mm"
   viewBox="0 0 210 297"
   version="1.1"
   id="svg1756"
   inkscape:version="1.2.2 (732a01da63, 2022-12-09)"
   sodipodi:docname="sello1.svg"
   xmlns:inkscape="http://www.inkscape.org/namespaces/inkscape"
   xmlns:sodipodi="http://sodipodi.sourceforge.net/DTD/sodipodi-0.dtd"
   xmlns="http://www.w3.org/2000/svg"
   xmlns:svg="http://www.w3.org/2000/svg">
  <sodipodi:namedview
     id="namedview1758"
     pagecolor="#ffffff"
     bordercolor="#000000"
     borderopacity="0.25"
     inkscape:showpageshadow="2"
     inkscape:pageopacity="0.0"
     inkscape:pagecheckerboard="0"
     inkscape:deskcolor="#d1d1d1"
     inkscape:document-units="mm"
     showgrid="false"
     inkscape:zoom="0.74564394"
     inkscape:cx="396.97231"
     inkscape:cy="561.9304"
     inkscape:window-width="1920"
     inkscape:window-height="1017"
     inkscape:window-x="-8"
     inkscape:window-y="-8"
     inkscape:window-maximized="1"
     inkscape:current-layer="layer1" />
  <defs
     id="defs1753" />
  <g
     inkscape:label="Capa 1"
     inkscape:groupmode="layer"
     id="layer1">
    <g
       id="g409"
       transform="matrix(0.35277777,0,0,-0.35277777,130.3903,58.7561)">
      <path
         d="m 0,0 c -10.248,0 -15.281,-2.608 -20.578,-5.37 -5.715,-2.949 -11.621,-6.007 -23.336,-6.007 -11.705,0 -17.611,3.058 -23.33,6.007 -5.313,2.762 -10.328,5.37 -20.569,5.37 -10.251,0 -15.267,-2.608 -20.582,-5.37 -5.709,-2.949 -11.623,-6.007 -23.337,-6.007 -11.711,0 -17.6,3.058 -23.309,6.007 -3.383,1.75 -6.641,3.419 -11.182,4.431 V -39.51 c 5.934,-1.109 9.996,-3.149 13.92,-5.189 5.315,-2.756 10.34,-5.357 20.571,-5.357 10.252,0 15.277,2.601 20.584,5.357 5.714,2.952 11.628,6.02 23.335,6.02 11.704,0 17.61,-3.068 23.317,-6.02 5.324,-2.756 10.332,-5.357 20.582,-5.357 10.258,0 15.266,2.601 20.58,5.357 5.709,2.952 11.619,6.02 23.334,6.02 11.697,0 17.619,-3.068 23.344,-6.02 3.355,-1.734 6.631,-3.431 11.187,-4.423 v 38.567 c -5.943,1.113 -10,3.159 -13.949,5.185 C 15.268,-2.608 10.26,0 0,0"
         style="fill:#1f120d;fill-opacity:1;fill-rule:nonzero;stroke:none"
         id="path411" />
    </g>
    <g
       id="g413"
       transform="matrix(0.35277777,0,0,-0.35277777,130.3903,224.49342)">
      <path
         d="m 0,0 c -10.248,0 -15.281,-2.614 -20.578,-5.362 -5.715,-2.944 -11.621,-6.006 -23.336,-6.006 -11.705,0 -17.611,3.062 -23.33,6.006 C -72.557,-2.614 -77.572,0 -87.813,0 c -10.251,0 -15.267,-2.614 -20.582,-5.362 -5.709,-2.944 -11.623,-6.006 -23.337,-6.006 -11.711,0 -17.6,3.062 -23.309,6.006 -3.383,1.744 -6.641,3.414 -11.182,4.433 v -38.572 c 5.934,-1.109 9.996,-3.164 13.92,-5.187 5.315,-2.749 10.34,-5.354 20.571,-5.354 10.252,0 15.277,2.605 20.584,5.354 5.714,2.957 11.628,6.023 23.335,6.023 11.704,0 17.61,-3.066 23.317,-6.023 5.324,-2.749 10.332,-5.354 20.582,-5.354 10.258,0 15.266,2.605 20.58,5.354 5.709,2.957 11.619,6.023 23.334,6.023 11.697,0 17.619,-3.066 23.344,-6.023 3.355,-1.753 6.631,-3.431 11.187,-4.434 v 38.567 c -5.943,1.113 -10,3.177 -13.949,5.193 C 15.268,-2.614 10.26,0 0,0"
         style="fill:#1f120d;fill-opacity:1;fill-rule:nonzero;stroke:none"
         id="path415" />
    </g>
    <g
       id="g421"
       transform="matrix(0.35277777,0,0,-0.35277777,132.66335,176.53872)">
      <path
         d="m 0,0 c -13.746,12.801 -31.613,21.965 -56.715,21.965 -31.383,0 -50.705,-18.113 -50.705,-48.276 0,-27.533 17.629,-50.457 50.467,-50.457 30.418,0 42.967,18.593 42.967,38.626 12.316,0 25.103,-8.208 25.103,-24.872 0,-26.306 -22.435,-53.096 -73.387,-53.096 -55.279,0 -93.416,40.552 -93.416,90.026 0,55.047 45.133,86.675 97.762,86.675 21.254,0 36.199,-6.522 44.654,-6.522 5.797,0 9.895,1.45 12.315,3.139 L 2.893,0.479 Z"
         style="fill:#1f120d;fill-opacity:1;fill-rule:nonzero;stroke:none"
         id="path423" />
    </g>
    <path
       d="m 96.132916,146.46614 v -0.84737 c 1.103842,-0.85055 2.042936,-2.89278 0.511881,-6.89751 L 77.909122,97.076902 c -1.871486,-4.171597 -3.490736,-7.23653 -5.534378,-9.366249 v -0.849136 h 29.720116 v 0.849136 c -3.066697,2.04223 -5.280377,7.498291 -2.810933,14.389447 l 8.602843,24.01923 9.28123,-24.01923 c 2.64301,-6.809311 0.42228,-12.347217 -2.81199,-14.389447 v -0.849136 h 27.59604 v 0.849136 c -2.55764,2.898775 -4.0894,6.299905 -6.64563,11.751733 l -18.05234,38.663034 c -1.87678,4.42559 -0.93698,6.55425 0.25506,7.49335 v 0.84737 z"
       style="fill:#1f120d;fill-opacity:1;fill-rule:nonzero;stroke:none;stroke-width:0.352778"
       id="path419" />
  </g>
</svg>
