<?xml version="1.0" encoding="UTF-8" standalone="no"?>
<!-- Created with Inkscape (http://www.inkscape.org/) -->

<svg
   width="210mm"
   height="297mm"
   viewBox="0 0 210 297"
   version="1.1"
   id="svg3155"
   inkscape:version="1.2.2 (732a01da63, 2022-12-09)"
   sodipodi:docname="sifon canuto.svg"
   xmlns:inkscape="http://www.inkscape.org/namespaces/inkscape"
   xmlns:sodipodi="http://sodipodi.sourceforge.net/DTD/sodipodi-0.dtd"
   xmlns="http://www.w3.org/2000/svg"
   xmlns:svg="http://www.w3.org/2000/svg">
  <sodipodi:namedview
     id="namedview3157"
     pagecolor="#ffffff"
     bordercolor="#000000"
     borderopacity="0.25"
     inkscape:showpageshadow="2"
     inkscape:pageopacity="0.0"
     inkscape:pagecheckerboard="0"
     inkscape:deskcolor="#d1d1d1"
     inkscape:document-units="mm"
     showgrid="false"
     inkscape:zoom="0.98603159"
     inkscape:rotation="180"
     inkscape:cx="396.53902"
     inkscape:cy="560.83396"
     inkscape:window-width="1920"
     inkscape:window-height="1017"
     inkscape:window-x="-8"
     inkscape:window-y="-8"
     inkscape:window-maximized="1"
     inkscape:current-layer="layer1" />
  <defs
     id="defs3152" />
  <g
     inkscape:label="Capa 1"
     inkscape:groupmode="layer"
     id="layer1">
    <path
       d="M 108.5459,199.51447 H 89.870114 v 11.98125 H 108.5459 Z"
       style="fill:#000000;fill-opacity:1;fill-rule:nonzero;stroke:none;stroke-width:3.28974"
       id="path1623" />
    <g
       id="g1625"
       transform="matrix(3.2897405,0,0,-3.2897405,103.62451,218.27155)">
      <path
         d="M 0,0 C 0,0 1.021,0.873 1.457,1.689 H -1.109 -1.575 -4.143 C -3.705,0.873 -2.685,0 -2.685,0 h 0.02 v -3.918 c -0.268,-0.309 -0.431,-0.709 -0.431,-1.148 0,-0.969 0.785,-1.754 1.753,-1.754 0.969,0 1.753,0.785 1.753,1.754 0,0.439 -0.163,0.839 -0.43,1.148 V 0 Z"
         style="fill:#000000;fill-opacity:1;fill-rule:nonzero;stroke:none"
         id="path1627" />
    </g>
    <g
       id="g1629"
       transform="matrix(3.2897405,0,0,-3.2897405,76.33315,230.02977)">
      <path
         d="m 0,0 v -0.442 c 0,0 3.419,0.047 3.985,-1.269 0.028,-0.057 0.053,-0.092 0.053,-0.092 l 0.614,0.002 c 0,0 -0.203,0.602 0.16,1.145 C 4.782,-0.618 2.89,1.388 0,0"
         style="fill:#000000;fill-opacity:1;fill-rule:nonzero;stroke:none"
         id="path1631" />
    </g>
    <g
       id="g1633"
       transform="matrix(3.2897405,0,0,-3.2897405,111.61432,210.07289)">
      <path
         d="m 0,0 v -1.137 l -1.4,-1.56 c 0,0 -0.013,-1.157 0,-1.131 1.464,0.656 5.381,5.652 5.381,5.652 l -1.49,1.143 z"
         style="fill:#000000;fill-opacity:1;fill-rule:nonzero;stroke:none"
         id="path1635" />
    </g>
    <g
       id="g1637"
       transform="matrix(3.2897405,0,0,-3.2897405,129.67235,140.91433)">
      <path
         d="M 0,0 C -0.001,0.657 -0.002,1.383 -0.001,2.157 -0.294,2.12 -0.476,2.024 -0.652,1.931 -0.861,1.819 -1.059,1.714 -1.463,1.714 -1.867,1.714 -2.064,1.819 -2.274,1.931 -2.43,2.013 -2.589,2.095 -2.823,2.14 -3.058,2.095 -3.218,2.013 -3.373,1.931 -3.583,1.819 -3.78,1.714 -4.184,1.714 c -0.404,0 -0.602,0.105 -0.811,0.217 -0.226,0.119 -0.458,0.242 -0.919,0.242 -0.462,0 -0.694,-0.123 -0.92,-0.242 -0.209,-0.112 -0.406,-0.217 -0.811,-0.217 -0.403,0 -0.601,0.105 -0.81,0.217 -0.225,0.119 -0.458,0.242 -0.919,0.242 -0.462,0 -0.694,-0.123 -0.92,-0.242 -0.133,-0.071 -0.261,-0.139 -0.439,-0.179 -0.179,0.04 -0.307,0.108 -0.44,0.179 -0.225,0.119 -0.458,0.242 -0.92,0.242 -0.461,0 -0.694,-0.123 -0.919,-0.242 -0.209,-0.112 -0.407,-0.217 -0.81,-0.217 -0.405,0 -0.602,0.105 -0.811,0.217 -0.225,0.119 -0.458,0.242 -0.92,0.242 -0.461,0 -0.693,-0.123 -0.919,-0.242 -0.209,-0.112 -0.407,-0.217 -0.81,-0.217 -0.405,0 -0.603,0.105 -0.812,0.217 -0.114,0.06 -0.23,0.12 -0.377,0.166 0,-0.752 0,-1.457 -0.001,-2.097 z"
         style="fill:#000000;fill-opacity:1;fill-rule:nonzero;stroke:none"
         id="path1639" />
    </g>
    <g
       id="g1641"
       transform="matrix(3.2897405,0,0,-3.2897405,129.70788,152.34185)">
      <path
         d="m 0,0 c 0,-0.008 0,0.145 -0.002,0.431 -0.011,0.005 -0.021,0.01 -0.032,0.016 -0.136,0.073 -0.276,0.147 -0.554,0.147 -0.277,0 -0.417,-0.074 -0.553,-0.147 -0.126,-0.066 -0.245,-0.13 -0.488,-0.13 -0.242,0 -0.361,0.064 -0.487,0.13 -0.136,0.073 -0.276,0.147 -0.553,0.147 -0.278,0 -0.418,-0.074 -0.553,-0.147 -0.126,-0.066 -0.245,-0.13 -0.488,-0.13 -0.243,0 -0.362,0.064 -0.488,0.13 -0.093,0.049 -0.19,0.1 -0.33,0.126 C -4.67,0.547 -4.766,0.496 -4.859,0.447 -4.985,0.381 -5.104,0.317 -5.348,0.317 c -0.242,0 -0.361,0.064 -0.487,0.13 -0.136,0.073 -0.275,0.147 -0.553,0.147 -0.278,0 -0.418,-0.074 -0.553,-0.147 -0.126,-0.066 -0.246,-0.13 -0.488,-0.13 -0.243,0 -0.362,0.064 -0.488,0.13 C -8.052,0.52 -8.192,0.594 -8.47,0.594 -8.747,0.594 -8.888,0.52 -9.022,0.447 -9.103,0.405 -9.18,0.365 -9.287,0.34 c -0.108,0.025 -0.185,0.065 -0.265,0.107 -0.136,0.073 -0.275,0.147 -0.552,0.147 -0.279,0 -0.418,-0.074 -0.554,-0.147 -0.126,-0.066 -0.244,-0.13 -0.488,-0.13 -0.243,0 -0.362,0.064 -0.488,0.13 -0.136,0.073 -0.275,0.147 -0.553,0.147 -0.277,0 -0.417,-0.074 -0.552,-0.147 -0.126,-0.066 -0.245,-0.13 -0.489,-0.13 -0.243,0 -0.362,0.064 -0.488,0.13 -0.093,0.049 -0.189,0.1 -0.33,0.126 -0.141,-0.026 -0.237,-0.077 -0.331,-0.126 -0.126,-0.066 -0.245,-0.13 -0.487,-0.13 -0.243,0 -0.363,0.064 -0.489,0.13 -0.135,0.073 -0.275,0.147 -0.552,0.147 -0.279,0 -0.418,-0.074 -0.554,-0.147 -0.126,-0.066 -0.244,-0.13 -0.487,-0.13 -0.243,0 -0.362,0.064 -0.489,0.13 -0.134,0.073 -0.275,0.147 -0.552,0.147 -0.244,0 -0.382,-0.058 -0.504,-0.12 C -18.492,0.16 -18.493,-0.009 -18.493,0 -18.55,-0.521 -18.589,-1.016 -18.611,-1.486 H 0.118 C 0.096,-1.016 0.057,-0.521 0,0"
         style="fill:#000000;fill-opacity:1;fill-rule:nonzero;stroke:none"
         id="path1643" />
    </g>
    <g
       id="g1645"
       transform="matrix(3.2897405,0,0,-3.2897405,89.65596,195.94709)">
      <path
         d="m 0,0 c 0.023,-0.172 0.072,-0.655 0.072,-0.655 h 2.856 2.856 c 0,0 0.048,0.483 0.072,0.655 0.363,2.608 6.33,2 6.459,10.487 H -6.459 C -6.329,2 -0.362,2.608 0,0"
         style="fill:#000000;fill-opacity:1;fill-rule:nonzero;stroke:none"
         id="path1647" />
    </g>
    <g
       id="g1649"
       transform="matrix(3.2897405,0,0,-3.2897405,68.870059,122.61211)">
      <path
         d="m 0,0 c 0.004,-0.652 0.007,-1.295 0.009,-1.917 0.098,-0.037 0.184,-0.082 0.271,-0.128 0.226,-0.119 0.458,-0.243 0.92,-0.243 0.461,0 0.694,0.124 0.919,0.243 0.209,0.111 0.407,0.217 0.811,0.217 0.404,0 0.601,-0.106 0.811,-0.217 0.225,-0.119 0.457,-0.243 0.919,-0.243 0.461,0 0.694,0.124 0.919,0.243 0.209,0.111 0.407,0.217 0.811,0.217 0.403,0 0.601,-0.106 0.811,-0.217 0.154,-0.082 0.315,-0.165 0.548,-0.21 0.233,0.045 0.394,0.128 0.548,0.21 0.21,0.111 0.407,0.217 0.811,0.217 0.404,0 0.602,-0.106 0.811,-0.217 0.226,-0.119 0.458,-0.243 0.919,-0.243 0.462,0 0.694,0.124 0.919,0.243 0.21,0.111 0.407,0.217 0.811,0.217 0.404,0 0.602,-0.106 0.811,-0.217 0.225,-0.119 0.458,-0.243 0.92,-0.243 0.461,0 0.693,0.124 0.919,0.243 0.133,0.07 0.261,0.139 0.441,0.178 0.18,-0.039 0.308,-0.108 0.441,-0.178 0.225,-0.119 0.458,-0.243 0.92,-0.243 0.46,0 0.694,0.124 0.918,0.243 0.159,0.083 0.31,0.164 0.547,0.198 0.001,0.601 0.004,1.219 0.007,1.847 z"
         style="fill:#000000;fill-opacity:1;fill-rule:nonzero;stroke:none"
         id="path1651" />
    </g>
    <g
       id="g1653"
       transform="matrix(3.2897405,0,0,-3.2897405,73.920462,96.743978)">
      <path
         d="m 0,0 c 0.52,0 0.773,-0.136 1.043,-0.278 0.29,-0.154 0.59,-0.314 1.184,-0.314 0.593,0 0.893,0.16 1.183,0.314 C 3.68,-0.136 3.935,0 4.454,0 4.974,0 5.229,-0.136 5.498,-0.278 5.696,-0.384 5.903,-0.491 6.204,-0.549 6.505,-0.491 6.711,-0.384 6.909,-0.278 7.179,-0.136 7.434,0 7.953,0 c 0.52,0 0.775,-0.136 1.044,-0.278 0.29,-0.154 0.59,-0.314 1.184,-0.314 0.593,0 0.893,0.16 1.183,0.314 0.27,0.142 0.524,0.278 1.043,0.278 0.521,0 0.776,-0.136 1.044,-0.278 0.291,-0.154 0.59,-0.314 1.185,-0.314 0.593,0 0.893,0.16 1.183,0.314 0.171,0.091 0.337,0.178 0.568,0.229 0.231,-0.051 0.396,-0.138 0.567,-0.229 0.033,-0.017 0.066,-0.034 0.099,-0.052 0.041,1.777 0.097,3.334 0.176,4.428 0.003,0.058 0.016,0.17 0.012,0.316 H -1.818 c -0.005,-0.146 0.008,-0.258 0.012,-0.316 0.08,-1.133 0.138,-2.763 0.18,-4.619 0.236,0.06 0.411,0.152 0.582,0.243 C -0.774,-0.136 -0.521,0 0,0"
         style="fill:#000000;fill-opacity:1;fill-rule:nonzero;stroke:none"
         id="path1655" />
    </g>
    <g
       id="g1657"
       transform="matrix(3.2897405,0,0,-3.2897405,125.50229,104.3834)">
      <path
         d="m 0,0 c -0.27,-0.144 -0.524,-0.279 -1.044,-0.279 -0.52,0 -0.775,0.135 -1.045,0.279 -0.289,0.152 -0.589,0.312 -1.183,0.312 -0.594,0 -0.894,-0.16 -1.184,-0.312 -0.269,-0.144 -0.523,-0.279 -1.043,-0.279 -0.52,0 -0.774,0.135 -1.044,0.279 -0.29,0.152 -0.59,0.312 -1.184,0.312 -0.593,0 -0.893,-0.16 -1.182,-0.312 -0.172,-0.092 -0.337,-0.178 -0.567,-0.23 -0.23,0.052 -0.395,0.138 -0.566,0.23 -0.29,0.152 -0.59,0.312 -1.184,0.312 -0.593,0 -0.894,-0.16 -1.183,-0.312 -0.27,-0.144 -0.524,-0.279 -1.044,-0.279 -0.52,0 -0.775,0.135 -1.043,0.279 -0.29,0.152 -0.59,0.312 -1.184,0.312 -0.594,0 -0.893,-0.16 -1.183,-0.312 -0.128,-0.068 -0.253,-0.135 -0.405,-0.186 0.02,-1.276 0.035,-2.609 0.044,-3.925 H 1.287 c 0.01,1.394 0.025,2.808 0.048,4.152 C 1.158,0.133 0.969,0.219 0.707,0.27 0.405,0.211 0.199,0.105 0,0"
         style="fill:#000000;fill-opacity:1;fill-rule:nonzero;stroke:none"
         id="path1659" />
    </g>
    <g
       id="g1661"
       transform="matrix(3.2897405,0,0,-3.2897405,68.889463,147.74778)">
      <path
         d="m 0,0 c 0.004,0.002 0.009,0.004 0.013,0.006 0.126,0.067 0.244,0.131 0.487,0.131 0.243,0 0.362,-0.064 0.487,-0.131 0.136,-0.071 0.277,-0.147 0.554,-0.147 0.277,0 0.418,0.076 0.553,0.147 0.126,0.067 0.245,0.131 0.488,0.131 0.242,0 0.361,-0.064 0.487,-0.131 0.136,-0.071 0.277,-0.147 0.554,-0.147 0.277,0 0.417,0.076 0.553,0.147 C 4.256,0.049 4.333,0.09 4.441,0.113 4.549,0.09 4.626,0.049 4.707,0.006 4.842,-0.065 4.982,-0.141 5.26,-0.141 c 0.277,0 0.417,0.076 0.552,0.147 0.127,0.067 0.246,0.131 0.489,0.131 0.243,0 0.361,-0.064 0.487,-0.131 0.136,-0.071 0.276,-0.147 0.554,-0.147 0.277,0 0.417,0.076 0.553,0.147 0.126,0.067 0.245,0.131 0.488,0.131 0.242,0 0.361,-0.064 0.487,-0.131 0.093,-0.049 0.19,-0.099 0.33,-0.126 0.141,0.027 0.237,0.077 0.329,0.126 0.126,0.067 0.245,0.131 0.489,0.131 0.243,0 0.362,-0.064 0.487,-0.131 0.136,-0.071 0.276,-0.147 0.554,-0.147 0.277,0 0.417,0.076 0.552,0.147 0.126,0.067 0.245,0.131 0.489,0.131 0.242,0 0.361,-0.064 0.487,-0.131 0.136,-0.071 0.275,-0.147 0.553,-0.147 0.278,0 0.418,0.076 0.553,0.147 0.08,0.043 0.158,0.084 0.266,0.107 0.107,-0.023 0.185,-0.064 0.265,-0.107 0.135,-0.071 0.276,-0.147 0.553,-0.147 0.278,0 0.417,0.076 0.553,0.147 0.126,0.067 0.245,0.131 0.488,0.131 0.244,0 0.362,-0.064 0.488,-0.131 0.135,-0.071 0.276,-0.147 0.552,-0.147 0.279,0 0.418,0.076 0.554,0.147 0.126,0.067 0.245,0.131 0.487,0.131 0.244,0 0.363,-0.064 0.489,-0.131 0.03,-0.016 0.061,-0.031 0.093,-0.047 -0.002,0.41 -0.002,0.9 -0.003,1.456 H 0.004 C 0.003,0.878 0.002,0.401 0,0"
         style="fill:#000000;fill-opacity:1;fill-rule:nonzero;stroke:none"
         id="path1663" />
    </g>
    <g
       id="g1665"
       transform="matrix(3.2897405,0,0,-3.2897405,99.287358,70.335892)">
      <path
         d="M 0,0 C -8.729,0.223 -9.5,-2.209 -9.529,-3.151 H 9.53 C 9.5,-2.209 8.729,0.223 0,0"
         style="fill:#000000;fill-opacity:1;fill-rule:nonzero;stroke:none"
         id="path1667" />
    </g>
  </g>
</svg>
